<svg width="1110" height="186" viewBox="0 0 1110 186" fill="none" xmlns="http://www.w3.org/2000/svg">
<path d="M147.823 27.1544C155.53 36.9798 159.52 48.8664 159.179 60.9861C159.179 85.7699 148.361 102.788 127.033 111.634C127.501 126.118 132.251 140.208 140.769 152.387C140.968 152.653 141.159 152.923 141.355 153.193C141.601 153.525 141.85 153.855 142.1 154.179C142.35 154.503 142.664 154.9 142.949 155.26C143.148 155.508 143.339 155.761 143.542 156.005C144.008 156.567 144.48 157.121 144.959 157.668C145.139 157.873 145.319 158.071 145.502 158.269C145.89 158.703 146.282 159.132 146.675 159.557C146.831 159.719 146.982 159.889 147.142 160.051C147.697 160.627 148.252 161.191 148.83 161.748C148.916 161.835 149.009 161.922 149.099 162.005C149.607 162.495 150.124 162.976 150.663 163.444L151.111 163.854C151.72 164.397 152.334 164.935 152.966 165.464C153.666 166.047 154.376 166.612 155.095 167.174L155.52 167.5C156.233 168.05 156.96 168.586 157.7 169.112L157.927 169.268C158.63 169.765 159.344 170.25 160.07 170.725L160.406 170.945C161.187 171.442 161.949 171.924 162.749 172.384L163.14 172.621C163.921 173.097 164.746 173.562 165.57 174.012C166.378 174.454 167.206 174.882 168.034 175.3L168.577 175.574C169.358 175.963 170.158 176.344 170.967 176.711C171.181 176.812 171.396 176.906 171.611 177.003C172.244 177.286 172.88 177.561 173.52 177.827C222.917 198.511 293.863 174.687 293.863 106.563V81.2718C293.871 -0.0691703 192.635 -18.2454 147.823 27.1544ZM258.248 106.596C258.248 170.254 162.519 170.254 162.519 106.596V81.2718C162.519 17.8654 258.248 18.6177 258.248 81.2718V106.596Z" fill="url(#paint0_linear)"/>
<path d="M163.966 182.779C164.376 182.779 164.775 182.652 165.1 182.421C165.425 182.189 165.659 181.865 165.762 181.498C165.865 181.132 165.832 180.744 165.67 180.396C165.509 180.048 165.226 179.76 164.868 179.575C159.237 176.701 153.986 173.238 149.215 169.256C143.45 164.445 138.466 158.894 134.417 152.775C134.254 152.526 134.026 152.32 133.753 152.176C133.479 152.032 133.17 151.954 132.855 151.951H35.8649V136.925C35.8649 117.878 61.4265 114.118 77.201 114.118H77.2238C78.1039 114.118 78.9838 114.118 79.8612 114.118H80.4352C81.3062 114.118 82.1732 114.092 83.0402 114.074H83.4292L85.8873 113.998H86.223C87.1095 113.962 87.9873 113.927 88.8661 113.884L89.2799 113.861C91.1025 113.765 92.9017 113.646 94.6748 113.502L94.9551 113.48C95.8651 113.404 96.7719 113.322 97.6897 113.232H97.7241C99.5857 113.045 101.424 112.821 103.239 112.562H103.344C105.156 112.303 106.938 112.011 108.691 111.673H108.714C113.023 110.874 117.256 109.757 121.369 108.33V108.33C140.506 101.593 153.628 87.8144 153.628 61.0511C153.871 54.5801 152.723 48.1284 150.25 42.0677C147.778 36.007 144.029 30.4568 139.22 25.7361L139.045 25.5674C138.589 25.1283 138.124 24.6992 137.647 24.2793L137.607 24.2424C136.597 23.3498 135.556 22.4936 134.483 21.673L134.312 21.543C133.816 21.1831 133.307 20.8028 132.796 20.4429L132.679 20.355C131.557 19.5704 130.405 18.8217 129.226 18.109L129.035 17.9983C128.514 17.6816 127.984 17.3727 127.445 17.0704L127.239 16.9544C126.028 16.2814 124.785 15.6331 123.52 15.0213L123.396 14.9598C122.822 14.6826 122.223 14.4107 121.645 14.1443L121.377 14.0213C120.084 13.4491 118.774 12.8981 117.435 12.3834H117.389C116.759 12.1435 116.123 11.9028 115.482 11.6629L115.158 11.5522C114.554 11.3386 113.948 11.1316 113.339 10.9301L113.152 10.8615C111.793 10.4176 110.416 9.99959 109.023 9.60849L108.632 9.5048C108.046 9.34284 107.462 9.18674 106.872 9.03557L106.523 8.94595C105.13 8.59563 103.724 8.27052 102.305 7.97059L101.883 7.88096C101.313 7.76579 100.743 7.64984 100.169 7.53827L99.6806 7.44513C99.005 7.31916 98.3217 7.19643 97.6382 7.08486H97.5753C96.8567 6.96249 96.1354 6.84392 95.409 6.72635L94.9704 6.66133L93.2636 6.42056L92.6858 6.34499L90.9123 6.12532L90.5423 6.08138C89.8198 5.9986 89.1041 5.92306 88.3855 5.85468L87.9965 5.81426C87.4224 5.76027 86.8234 5.70991 86.2649 5.66312L85.6337 5.61391C85.0908 5.56713 84.5385 5.5304 83.9918 5.49441L83.4654 5.45926C82.7507 5.41247 82.0405 5.37575 81.3258 5.33976H81.0359L79.1957 5.26771H78.5435C78.024 5.26771 77.505 5.23976 76.9817 5.23256H76.3695C75.6626 5.23256 74.9558 5.23256 74.2489 5.23256C62.3929 5.17445 50.6196 7.06986 39.4882 10.8316C37.5081 11.5191 35.5641 12.2726 33.6699 13.1004C31.7758 13.9282 29.9359 14.8126 28.1511 15.7699C20.2485 19.6744 13.5827 25.405 8.80651 32.3985C4.03035 39.3919 1.30752 47.408 0.905824 55.6629C0.887312 56.011 0.945677 56.3591 1.07745 56.6857C1.20923 57.0124 1.41168 57.312 1.67244 57.5644C1.93319 57.8168 2.24786 58.0176 2.59542 58.1549C2.94299 58.2923 3.31759 58.3622 3.69576 58.3623H33.8568C34.4136 58.3636 34.9575 58.2103 35.4187 57.9229C35.9369 57.6089 36.3249 57.1431 36.5171 56.5996C36.5696 56.4495 36.6068 56.2955 36.6296 56.1392C38.5824 41.7426 56.9381 33.8061 74.802 33.8061C84.3645 33.536 93.8628 35.338 102.532 39.0678C107.248 41.0592 111.229 44.2802 113.981 48.3328C116.734 52.3854 118.14 57.092 118.022 61.8718C118.022 82.1747 91.6429 84.428 77.2315 84.428C39.7032 84.428 0 96.459 0 136.809V182.922H164.006L163.966 182.779Z" fill="url(#paint1_linear)"/>
<path d="M315.216 38.7829V17.4392C315.215 17.3231 315.176 17.2111 315.107 17.1141C315.038 17.0171 314.94 16.9397 314.825 16.8927L306.932 13.5817C306.816 13.5355 306.717 13.4592 306.648 13.3621C306.578 13.2649 306.541 13.1515 306.541 13.0352V5.70681C306.542 5.6274 306.56 5.54959 306.594 5.47659C306.628 5.40359 306.678 5.337 306.739 5.28152C306.801 5.22604 306.873 5.18274 306.953 5.15323C307.033 5.12372 307.118 5.10834 307.205 5.10929C307.291 5.11062 307.376 5.12833 307.454 5.16026L350.877 23.1086C351.344 23.3066 351.74 23.6248 352.017 24.0242C352.294 24.4237 352.44 24.8876 352.439 25.3616V30.864C352.44 31.3381 352.294 31.8037 352.017 32.2032C351.74 32.6026 351.344 32.919 350.877 33.117L307.454 51.0671C307.294 51.1298 307.114 51.1317 306.953 51.0724C306.791 51.0131 306.662 50.8978 306.592 50.7508C306.558 50.678 306.539 50.5999 306.537 50.5206V43.1342C306.538 43.0181 306.577 42.9044 306.646 42.8073C306.715 42.7103 306.813 42.6347 306.928 42.5877L314.821 39.3488C314.941 39.3027 315.044 39.223 315.115 39.1221C315.185 39.0211 315.22 38.9029 315.216 38.7829V38.7829ZM341.464 27.5566L324.194 20.6184C324.115 20.5864 324.03 20.5688 323.944 20.5674C323.858 20.5661 323.772 20.5801 323.692 20.6096C323.612 20.6391 323.54 20.6839 323.479 20.7396C323.417 20.7954 323.369 20.8614 323.336 20.9347C323.301 21.0073 323.282 21.0855 323.281 21.1649V35.0467C323.283 35.2067 323.353 35.3594 323.477 35.4719C323.601 35.5845 323.767 35.6477 323.94 35.6477C324.027 35.6435 324.113 35.6277 324.194 35.5985L341.464 28.655C341.543 28.6234 341.614 28.5769 341.674 28.5197C341.733 28.4624 341.78 28.3951 341.811 28.3211C341.842 28.247 341.857 28.1684 341.855 28.0891C341.852 28.0098 341.831 27.9311 341.796 27.8589C341.73 27.7232 341.612 27.6153 341.464 27.5566V27.5566Z" fill="url(#paint2_linear)"/>
<path d="M352.532 84.7554V88.9732C352.531 89.4709 352.316 89.9485 351.933 90.3C351.551 90.6516 351.034 90.8484 350.494 90.8484H308.353C307.874 90.8484 307.415 90.6734 307.077 90.3616C306.739 90.0497 306.547 89.6269 306.547 89.1859V86.6657C306.548 86.4122 306.613 86.1623 306.734 85.9347C306.855 85.7071 307.03 85.5087 307.247 85.353L336.601 64.3221C336.645 64.2932 336.682 64.256 336.71 64.2132C336.737 64.1704 336.755 64.1237 336.761 64.0744C336.768 64.025 336.763 63.9744 336.748 63.9267C336.733 63.8791 336.707 63.8346 336.672 63.7967C336.635 63.7515 336.587 63.7162 336.532 63.6912C336.478 63.6662 336.416 63.652 336.355 63.6526H308.626C308.085 63.6516 307.567 63.4547 307.186 63.1025C306.804 62.7503 306.591 62.2716 306.591 61.7739V57.5526C306.591 57.0553 306.804 56.5792 307.186 56.2276C307.567 55.8759 308.086 55.6775 308.626 55.6775H350.473C351.012 55.6784 351.529 55.8761 351.911 56.2276C352.292 56.579 352.506 57.0556 352.507 57.5526V61.2274C352.508 61.513 352.439 61.7946 352.303 62.0516C352.168 62.3085 351.971 62.5344 351.727 62.7106L325.657 81.6958C325.583 81.7512 325.523 81.8189 325.478 81.8962C325.433 81.9734 325.405 82.0584 325.396 82.1457C325.386 82.233 325.395 82.3219 325.422 82.4058C325.45 82.4897 325.495 82.5683 325.556 82.636C325.623 82.7112 325.707 82.7713 325.802 82.8135C325.897 82.8558 326.001 82.8788 326.107 82.8803H350.524C351.059 82.8869 351.569 83.0865 351.945 83.4374C352.321 83.7883 352.532 84.2625 352.532 84.7554V84.7554ZM359.561 64.0673C359.612 63.9831 359.695 63.9187 359.794 63.8881C359.893 63.8574 360.002 63.8631 360.097 63.9021C363.784 65.367 366.346 67.6989 365.382 71.5644C364.667 74.4041 361.245 77.1899 365.322 79.0615L363.002 83.5745C362.951 83.6639 362.868 83.7325 362.765 83.7678C362.663 83.803 362.548 83.8032 362.447 83.766C357.701 81.9916 356.292 79.0543 357.05 76.2865C357.964 73.328 361.846 70.7189 357.05 68.329L359.561 64.0673Z" fill="url(#paint3_linear)"/>
<path d="M329.27 141.993C326.312 142.141 323.353 141.75 320.559 140.844C317.765 139.938 315.193 138.535 312.988 136.712C310.783 134.89 308.988 132.683 307.707 130.222C306.427 127.761 305.687 125.092 305.526 122.366C305.487 121.672 305.483 120.977 305.526 120.282C305.358 117.578 305.769 114.87 306.737 112.312C307.705 109.755 309.21 107.397 311.167 105.376C313.123 103.354 315.493 101.708 318.141 100.531C320.788 99.3534 323.66 98.6689 326.594 98.515C327.466 98.4685 328.341 98.4685 329.213 98.515C335.286 98.2088 341.242 100.138 345.771 103.879C350.3 107.619 353.03 112.865 353.363 118.461C353.398 119.066 353.407 119.671 353.388 120.261C353.488 123.022 352.996 125.775 351.942 128.361C350.888 130.947 349.291 133.317 347.243 135.334C345.195 137.352 342.736 138.978 340.006 140.12C337.276 141.262 334.33 141.898 331.333 141.99C330.642 142.033 329.953 142.026 329.27 141.993ZM329.072 106.383C327.162 106.255 325.246 106.474 323.429 107.03C321.612 107.585 319.93 108.464 318.482 109.618C317.034 110.772 315.849 112.177 314.99 113.753C314.132 115.33 313.618 117.047 313.48 118.806C313.438 119.3 313.428 119.797 313.449 120.293C313.31 123.844 314.707 127.301 317.332 129.904C319.958 132.506 323.597 134.041 327.451 134.171C328.009 134.188 328.569 134.178 329.127 134.139C333.046 134.517 336.968 133.444 340.029 131.157C343.091 128.87 345.04 125.557 345.451 121.945C345.513 121.396 345.541 120.844 345.533 120.293C345.564 118.486 345.209 116.692 344.488 115.012C343.767 113.332 342.694 111.8 341.33 110.502C339.966 109.204 338.338 108.166 336.539 107.448C334.74 106.73 332.805 106.346 330.845 106.318C330.266 106.31 329.686 106.333 329.11 106.386L329.072 106.383Z" fill="url(#paint4_linear)"/>
<path d="M341.725 175.763C341.644 175.599 341.627 175.414 341.675 175.24C341.723 175.065 341.834 174.911 341.99 174.802C343.455 173.586 344.617 172.092 345.397 170.423C346.177 168.753 346.556 166.948 346.507 165.131C346.507 159.211 343.82 156.378 340.403 156.378C336.408 156.378 335.29 160.729 334.634 165.808C333.537 173.985 331.32 181.645 322.279 182.725C320.245 182.898 318.192 182.7 316.241 182.143C314.29 181.586 312.478 180.68 310.908 179.477C309.337 178.273 308.039 176.797 307.088 175.131C306.137 173.465 305.554 171.642 305.368 169.767C305.368 169.767 305.368 169.731 305.368 169.713C304.278 158.883 306.727 150.519 316.335 146.751C316.424 146.715 316.523 146.712 316.615 146.742C316.707 146.771 316.784 146.83 316.831 146.909L320.24 152.974C320.281 153.049 320.287 153.138 320.258 153.218C320.228 153.298 320.166 153.364 320.084 153.402H320.059C317.785 154.528 315.919 156.244 314.691 158.337C313.463 160.43 312.927 162.808 313.15 165.179C313.15 170.192 315.06 174.895 320.059 174.895C324.355 174.895 326.163 170.725 326.819 165.1C327.933 156.462 330.428 148.475 340.723 148.475C350.179 148.475 354.034 157.063 354.105 164.859C354.452 168.013 353.858 171.194 352.387 174.059C350.915 176.924 348.621 179.363 345.754 181.115C345.653 181.164 345.544 181.195 345.43 181.204C345.316 181.214 345.201 181.202 345.092 181.171C344.983 181.14 344.882 181.089 344.795 181.022C344.707 180.954 344.635 180.871 344.583 180.777L341.725 175.763Z" fill="url(#paint5_linear)"/>
<path d="M491.502 70.9865H474.459C473.085 70.9865 471.971 72.0129 471.971 73.2791V88.9894C471.971 90.2557 473.085 91.2821 474.459 91.2821H491.502C492.876 91.2821 493.99 90.2557 493.99 88.9894V73.2791C493.99 72.0129 492.876 70.9865 491.502 70.9865Z" fill="#6CD33C"/>
<path d="M454.572 71.0486H412.291C408.76 71.0486 405.897 73.6864 405.897 76.9404V115.905C405.897 119.159 408.76 121.797 412.291 121.797H454.572C458.103 121.797 460.965 119.159 460.965 115.905V76.9404C460.965 73.6864 458.103 71.0486 454.572 71.0486Z" fill="#6CD33C"/>
<path d="M486.538 0H435.376C431.256 0 427.916 3.07777 427.916 6.87439V54.0234C427.916 57.82 431.256 60.8978 435.376 60.8978H486.538C490.658 60.8978 493.998 57.82 493.998 54.0234V6.87439C493.998 3.07777 490.658 0 486.538 0Z" fill="#6CD33C"/>
<path d="M568.09 25.3767H513.143C508.603 25.3767 504.922 28.7687 504.922 32.9529V83.5895C504.922 87.7737 508.603 91.1657 513.143 91.1657H568.09C572.63 91.1657 576.311 87.7737 576.311 83.5895V32.9529C576.311 28.7687 572.63 25.3767 568.09 25.3767Z" fill="#6CD33C"/>
<path d="M549.734 101.431H482.207C476.519 101.431 471.908 105.681 471.908 110.922V173.152C471.908 178.393 476.519 182.643 482.207 182.643H549.734C555.422 182.643 560.033 178.393 560.033 173.152V110.922C560.033 105.681 555.422 101.431 549.734 101.431Z" fill="#6CD33C"/>
<path d="M647.413 81.1669V68.9297C647.413 68.357 647.166 67.8077 646.726 67.4027C646.287 66.9977 645.691 66.7702 645.069 66.7702H628.244C627.623 66.7702 627.027 66.5427 626.587 66.1377C626.148 65.7327 625.901 65.1835 625.901 64.6107V56.3794C625.901 55.8067 626.148 55.2574 626.587 54.8525C627.027 54.4475 627.623 54.22 628.244 54.22H661.574C662.196 54.22 662.792 54.4475 663.231 54.8525C663.671 55.2574 663.917 55.8067 663.917 56.3794V94.1022C663.917 94.675 663.671 95.2242 663.231 95.6292C662.792 96.0342 662.196 96.2617 661.574 96.2617H623.3C623.178 96.2613 623.057 96.2516 622.937 96.2329C621.664 96.0482 620.567 95.909 619.648 95.8154C618.548 95.6922 617.459 95.4937 616.391 95.2216C615.18 94.9264 613.508 94.4166 611.372 93.6919C608.403 92.4743 605.676 90.805 603.308 88.7539C599.76 85.7521 597.142 81.9349 595.723 77.6937C593.864 72.672 592.94 67.3969 592.989 62.0913V57.8551C592.958 54.5922 593.391 51.3396 594.278 48.1806C595.083 45.3376 596.234 42.5874 597.707 39.9817C599.052 37.5821 600.762 35.3716 602.784 33.4168C605.334 31.1646 608.267 29.3128 611.466 27.9353C617.093 25.8538 623.149 24.9431 629.201 25.2683H661.562C662.184 25.2683 662.78 25.4958 663.219 25.9008C663.659 26.3058 663.906 26.8551 663.906 27.4278V35.4252C663.906 35.9979 663.659 36.5472 663.219 36.9521C662.78 37.3571 662.184 37.5846 661.562 37.5846H629.197C625.249 37.3657 621.343 38.432 618.16 40.5971C615.437 42.719 613.491 45.5633 612.587 48.742C611.471 52.4725 610.93 56.3288 610.978 60.1981V61.2779C610.651 66.893 611.965 72.486 614.782 77.4741C617.318 81.3588 622.122 83.3 629.193 83.2976H645.05C645.669 83.3024 646.266 83.0809 646.708 82.6816C647.151 82.2823 647.404 81.7377 647.413 81.1669V81.1669Z" fill="#FFFAFA"/>
<path d="M688.552 96.2767H678.48C677.859 96.2767 677.263 96.0492 676.823 95.6442C676.384 95.2392 676.137 94.6899 676.137 94.1172V46.4068C676.137 45.8341 676.384 45.2848 676.823 44.8798C677.263 44.4748 677.859 44.2473 678.48 44.2473H701.198C704.734 44.0515 708.267 44.6622 711.486 46.0253C712.533 46.5183 713.462 47.2008 714.217 48.0319C714.972 48.863 715.537 49.8257 715.879 50.8626C716.614 53.6411 716.938 56.4981 716.844 59.3565V63.8015C716.844 64.0851 716.784 64.3659 716.666 64.6279C716.548 64.8899 716.375 65.128 716.158 65.3285C715.94 65.529 715.682 65.6881 715.397 65.7966C715.113 65.9051 714.808 65.961 714.501 65.961H705.073C704.451 65.961 703.855 65.7335 703.416 65.3285C702.976 64.9235 702.73 64.3742 702.73 63.8015V61.8148C702.837 60.0008 702.657 58.1821 702.194 56.4161C702.029 55.9884 701.759 55.6014 701.405 55.285C701.052 54.9687 700.624 54.7313 700.156 54.5913C699.23 54.4581 698.406 54.3609 697.695 54.2925C696.984 54.2242 695.801 54.1954 694.157 54.1954H693.298C692.676 54.1954 692.08 54.4229 691.641 54.8279C691.201 55.2328 690.954 55.7821 690.954 56.3549V94.1028C690.956 94.3922 690.896 94.679 690.775 94.9463C690.655 95.2136 690.477 95.4558 690.253 95.6586C690.029 95.8614 689.763 96.0206 689.471 96.1268C689.179 96.2329 688.866 96.2839 688.552 96.2767V96.2767Z" fill="#FFFAFA"/>
<path d="M765.063 44.236H775.245C775.553 44.236 775.857 44.2919 776.142 44.4004C776.426 44.5089 776.684 44.668 776.902 44.8685C777.119 45.069 777.292 45.3071 777.41 45.5691C777.527 45.8311 777.588 46.1119 777.588 46.3955V94.1023C777.588 94.3859 777.527 94.6667 777.41 94.9287C777.292 95.1907 777.119 95.4288 776.902 95.6293C776.684 95.8298 776.426 95.9889 776.142 96.0974C775.857 96.2059 775.553 96.2618 775.245 96.2618H749.527C745.191 96.3732 740.869 95.7536 736.775 94.4334C733.479 93.3173 730.7 91.1915 728.902 88.4121C726.912 84.9697 725.968 81.0964 726.168 77.2007V46.3919C726.168 45.8192 726.415 45.2699 726.854 44.8649C727.294 44.4599 727.89 44.2324 728.511 44.2324H738.584C739.205 44.2324 739.801 44.4599 740.24 44.8649C740.68 45.2699 740.927 45.8192 740.927 46.3919V76.2109C740.861 77.9571 741.151 79.6992 741.782 81.3469C742.042 81.9769 742.443 82.549 742.96 83.0255C743.477 83.5019 744.098 83.872 744.782 84.1111C746.642 84.7013 748.604 84.9686 750.57 84.8993H760.333C760.641 84.8993 760.946 84.8434 761.23 84.7349C761.515 84.6264 761.773 84.4673 761.99 84.2668C762.208 84.0662 762.381 83.8282 762.498 83.5662C762.616 83.3042 762.677 83.0234 762.677 82.7398V46.3883C762.678 46.102 762.741 45.8187 762.861 45.5549C762.982 45.2911 763.159 45.0521 763.381 44.8518C763.603 44.6515 763.866 44.4939 764.155 44.3882C764.444 44.2825 764.752 44.2308 765.063 44.236V44.236Z" fill="#FFFAFA"/>
<path d="M803.534 106.721H793.462C793.154 106.721 792.849 106.665 792.565 106.556C792.28 106.448 792.022 106.289 791.805 106.088C791.587 105.888 791.414 105.65 791.297 105.388C791.179 105.126 791.118 104.845 791.118 104.561V46.4059C791.118 46.1223 791.179 45.8415 791.297 45.5795C791.414 45.3175 791.587 45.0795 791.805 44.8789C792.022 44.6784 792.28 44.5193 792.565 44.4108C792.849 44.3023 793.154 44.2464 793.462 44.2464H819.715C823.523 44.2172 827.309 44.7843 830.912 45.9237C834.169 46.9256 837.137 48.5969 839.59 50.8113C841.977 53.0451 843.822 55.7207 845.003 58.6611C845.767 60.2497 846.359 61.9036 846.772 63.5991C847.174 65.3526 847.371 67.1409 847.358 68.9331V70.8118C847.474 77.1307 845.327 83.3087 841.25 88.3901C839.554 90.3722 837.44 92.0176 835.036 93.2274C832.716 94.3574 830.223 95.1559 827.643 95.5956C824.743 96.0773 821.801 96.3087 818.855 96.2866H808.244C807.936 96.2866 807.632 96.3425 807.347 96.451C807.063 96.5596 806.805 96.7186 806.587 96.9191C806.369 97.1197 806.197 97.3577 806.079 97.6197C805.961 97.8817 805.901 98.1625 805.901 98.4461V104.565C805.9 104.85 805.838 105.132 805.719 105.395C805.6 105.658 805.425 105.897 805.205 106.097C804.985 106.297 804.724 106.456 804.437 106.563C804.15 106.67 803.843 106.723 803.534 106.721V106.721ZM805.877 57.5633V82.9446C805.877 83.5173 806.124 84.0666 806.564 84.4716C807.003 84.8765 807.599 85.1041 808.22 85.1041H811.439C815.23 85.1943 819.021 84.8949 822.741 84.2115C825.383 83.6429 827.686 82.1579 829.17 80.0653C831.021 76.9602 831.858 73.4277 831.58 69.894V68.9079C831.58 63.5091 830.205 59.91 827.455 58.1104C823.798 56.0802 819.553 55.1329 815.293 55.3966H808.22C807.6 55.4004 807.007 55.6306 806.571 56.0368C806.135 56.4429 805.891 56.9918 805.893 57.5633H805.877Z" fill="#FFFAFA"/>
<path d="M904.256 89.0931C901.84 91.1815 899 92.8094 895.899 93.8835C893.563 94.6836 891.163 95.3142 888.72 95.7695C886.74 96.0957 884.733 96.2572 882.721 96.2518C878.705 96.2379 874.721 95.6003 870.934 94.3658C867.297 93.2666 863.955 91.4682 861.128 89.0895C858.676 87.0415 856.754 84.5128 855.504 81.6896C854.543 79.5622 853.789 77.3605 853.25 75.1103C852.884 73.3089 852.705 71.4795 852.715 69.6468C852.621 66.4659 853.185 63.2975 854.375 60.3106C855.212 58.2728 856.259 56.3131 857.499 54.4583C858.817 52.7228 860.327 51.1175 862.003 49.6678C864.508 47.5735 867.465 45.9912 870.681 45.0249C874.548 43.7489 878.629 43.1105 882.737 43.139C886.724 43.1321 890.684 43.7404 894.454 44.9385C897.696 45.8663 900.69 47.4154 903.237 49.4843C904.975 50.9368 906.538 52.5587 907.896 54.3216C909.146 56.1543 910.193 58.098 911.021 60.1234C912.196 63.1804 912.741 66.4126 912.63 69.654C912.64 73.2727 911.932 76.8626 910.54 80.2463C909.175 83.5841 907.03 86.6043 904.256 89.0931V89.0931ZM877.699 84.4501C878.395 84.7422 879.135 84.9374 879.894 85.0296C880.763 85.1571 881.642 85.2221 882.522 85.2239C885.513 85.2466 888.436 84.4003 890.876 82.8053C893.204 81.4034 894.957 79.3263 895.86 76.9027C896.674 74.6238 897.09 72.2403 897.094 69.8411C897.172 66.7486 896.456 63.6828 895.004 60.8936C893.601 58.3353 891.213 56.3513 888.306 55.3293C886.555 54.729 884.707 54.403 882.839 54.3647C880.906 54.3857 878.994 54.7296 877.195 55.3797C877.099 55.4124 877.005 55.4496 876.914 55.4913C875.15 56.2494 873.559 57.311 872.227 58.619C870.894 59.9898 869.89 61.6052 869.282 63.3591C868.568 65.4541 868.225 67.6417 868.267 69.8375C868.217 72.9341 869.009 75.9929 870.571 78.7346C872.099 81.3813 874.631 83.417 877.683 84.4537L877.699 84.4501Z" fill="#FFFAFA"/>
<path d="M617.507 162.383L612.395 174.26C612.282 174.52 612.087 174.742 611.836 174.898C611.585 175.055 611.288 175.139 610.985 175.138H595.363C595.112 175.139 594.865 175.082 594.644 174.972C594.423 174.863 594.234 174.704 594.096 174.511C593.958 174.318 593.874 174.097 593.852 173.866C593.829 173.636 593.87 173.404 593.969 173.191L623.502 109.961C623.62 109.711 623.815 109.497 624.062 109.347C624.31 109.197 624.6 109.116 624.896 109.116H643.733C644.031 109.115 644.324 109.197 644.572 109.349C644.821 109.502 645.015 109.718 645.131 109.972L673.954 173.202C674.05 173.414 674.088 173.645 674.065 173.875C674.041 174.104 673.956 174.324 673.818 174.516C673.679 174.707 673.492 174.864 673.272 174.973C673.051 175.082 672.805 175.139 672.556 175.138H656.34C656.033 175.139 655.733 175.054 655.48 174.894C655.226 174.734 655.032 174.506 654.922 174.242L650.028 162.412C649.918 162.148 649.724 161.921 649.471 161.761C649.218 161.601 648.918 161.515 648.611 161.516H618.929C618.625 161.512 618.327 161.593 618.073 161.748C617.819 161.902 617.622 162.124 617.507 162.383V162.383ZM625.033 150.085H642.549C642.795 150.084 643.036 150.029 643.253 149.924C643.47 149.819 643.656 149.666 643.795 149.48C643.934 149.294 644.022 149.079 644.051 148.855C644.081 148.63 644.05 148.403 643.963 148.192L635.348 127.389C635.236 127.127 635.041 126.902 634.789 126.744C634.537 126.586 634.239 126.501 633.934 126.501C633.629 126.501 633.331 126.586 633.078 126.744C632.826 126.902 632.632 127.127 632.52 127.389L623.619 148.184C623.531 148.396 623.501 148.624 623.529 148.849C623.558 149.074 623.646 149.29 623.785 149.476C623.924 149.663 624.11 149.816 624.328 149.922C624.545 150.028 624.787 150.084 625.033 150.085V150.085Z" fill="#FFFAFA"/>
<path d="M701.901 110.509V161.765C701.901 162.136 702.061 162.492 702.346 162.755C702.631 163.017 703.017 163.165 703.42 163.165H743.194C743.394 163.164 743.592 163.2 743.776 163.27C743.961 163.34 744.128 163.444 744.269 163.574C744.411 163.704 744.523 163.858 744.599 164.028C744.675 164.198 744.714 164.381 744.713 164.565V173.739C744.713 173.923 744.674 174.104 744.598 174.274C744.521 174.444 744.409 174.598 744.268 174.728C744.127 174.857 743.959 174.96 743.775 175.03C743.591 175.1 743.393 175.136 743.194 175.135H685.435C685.236 175.136 685.038 175.1 684.854 175.03C684.67 174.96 684.502 174.857 684.361 174.728C684.22 174.598 684.108 174.444 684.032 174.274C683.955 174.104 683.916 173.923 683.916 173.739V110.509C683.916 110.325 683.954 110.143 684.031 109.973C684.107 109.803 684.219 109.648 684.36 109.518C684.501 109.388 684.669 109.285 684.853 109.214C685.038 109.144 685.236 109.108 685.435 109.109H700.389C700.588 109.109 700.785 109.146 700.969 109.217C701.153 109.287 701.32 109.39 701.46 109.52C701.6 109.65 701.711 109.805 701.787 109.974C701.863 110.144 701.901 110.326 701.901 110.509V110.509Z" fill="#FFFAFA"/>
<path d="M773.72 110.509V173.739C773.72 173.923 773.681 174.104 773.605 174.274C773.528 174.444 773.416 174.598 773.275 174.728C773.134 174.857 772.966 174.96 772.782 175.03C772.598 175.1 772.4 175.136 772.201 175.135H757.251C757.051 175.136 756.854 175.1 756.67 175.03C756.485 174.96 756.318 174.857 756.177 174.728C756.036 174.598 755.924 174.444 755.847 174.274C755.771 174.104 755.731 173.923 755.731 173.739V110.509C755.731 110.138 755.892 109.782 756.176 109.519C756.461 109.256 756.848 109.109 757.251 109.109H772.201C772.401 109.108 772.598 109.144 772.783 109.214C772.968 109.285 773.135 109.388 773.276 109.518C773.418 109.648 773.529 109.803 773.606 109.973C773.682 110.143 773.721 110.325 773.72 110.509V110.509Z" fill="#FFFAFA"/>
<path d="M808.229 162.385L803.116 174.263C803.003 174.522 802.809 174.744 802.557 174.901C802.306 175.057 802.01 175.141 801.707 175.141H786.084C785.833 175.141 785.586 175.084 785.365 174.974C785.144 174.865 784.956 174.707 784.818 174.514C784.68 174.32 784.596 174.099 784.573 173.868C784.551 173.638 784.591 173.406 784.69 173.194L814.224 109.964C814.342 109.713 814.536 109.499 814.784 109.349C815.032 109.199 815.322 109.119 815.618 109.118H834.455C834.753 109.118 835.045 109.199 835.294 109.351C835.543 109.504 835.737 109.721 835.853 109.975L864.676 173.204C864.772 173.417 864.81 173.648 864.787 173.877C864.763 174.106 864.678 174.326 864.54 174.518C864.401 174.71 864.214 174.867 863.993 174.975C863.773 175.084 863.527 175.141 863.277 175.141H847.065C846.758 175.141 846.458 175.056 846.205 174.896C845.952 174.736 845.758 174.509 845.648 174.245L840.754 162.414C840.644 162.15 840.45 161.923 840.196 161.763C839.943 161.603 839.643 161.517 839.336 161.518H809.654C809.35 161.514 809.051 161.595 808.797 161.75C808.543 161.904 808.345 162.126 808.229 162.385V162.385ZM815.755 150.087H833.271C833.516 150.087 833.758 150.032 833.975 149.926C834.192 149.821 834.378 149.669 834.517 149.482C834.656 149.296 834.744 149.082 834.773 148.857C834.802 148.633 834.772 148.405 834.685 148.194L826.069 127.391C825.958 127.129 825.764 126.904 825.512 126.745C825.261 126.586 824.963 126.502 824.657 126.502C824.352 126.502 824.054 126.586 823.802 126.745C823.55 126.904 823.356 127.129 823.246 127.391L814.345 148.187C814.257 148.398 814.226 148.626 814.255 148.851C814.284 149.075 814.371 149.29 814.51 149.477C814.648 149.664 814.834 149.817 815.051 149.923C815.268 150.03 815.509 150.086 815.755 150.087V150.087Z" fill="#FFFAFA"/>
<path d="M929.882 109.107H943.65C943.849 109.107 944.046 109.144 944.23 109.214C944.414 109.284 944.582 109.388 944.722 109.518C944.863 109.648 944.975 109.802 945.051 109.972C945.126 110.142 945.165 110.324 945.165 110.507V173.737C945.165 173.921 945.127 174.103 945.051 174.272C944.975 174.442 944.863 174.596 944.722 174.726C944.581 174.856 944.414 174.959 944.23 175.029C944.046 175.099 943.849 175.134 943.65 175.134H927.98C927.734 175.134 927.492 175.08 927.274 174.974C927.056 174.869 926.87 174.716 926.731 174.529L894.795 131.674C894.613 131.427 894.35 131.24 894.044 131.141C893.738 131.042 893.406 131.036 893.096 131.124C892.786 131.212 892.515 131.389 892.323 131.629C892.13 131.869 892.026 132.16 892.026 132.459L891.815 173.745C891.813 174.114 891.652 174.468 891.367 174.729C891.082 174.989 890.697 175.135 890.296 175.134H876.537C876.337 175.134 876.14 175.099 875.956 175.029C875.771 174.959 875.604 174.856 875.463 174.726C875.322 174.596 875.21 174.442 875.133 174.273C875.057 174.103 875.018 173.921 875.018 173.737V110.504C875.018 110.133 875.178 109.776 875.463 109.514C875.747 109.251 876.134 109.104 876.537 109.104H893.19C893.437 109.103 893.68 109.158 893.899 109.264C894.117 109.37 894.305 109.524 894.444 109.712L925.297 151.426C925.479 151.673 925.742 151.86 926.047 151.959C926.352 152.058 926.683 152.065 926.993 151.978C927.302 151.891 927.573 151.715 927.766 151.476C927.96 151.237 928.065 150.947 928.066 150.649L928.379 110.5C928.381 110.133 928.54 109.781 928.821 109.52C929.102 109.259 929.484 109.111 929.882 109.107V109.107Z" fill="#FFFAFA"/>
<path d="M1023.57 164.82V173.717C1023.57 173.901 1023.53 174.083 1023.45 174.253C1023.38 174.422 1023.27 174.576 1023.13 174.706C1022.98 174.836 1022.82 174.939 1022.63 175.009C1022.45 175.079 1022.25 175.114 1022.05 175.114H957.821C957.622 175.114 957.424 175.079 957.24 175.009C957.056 174.939 956.888 174.836 956.747 174.706C956.606 174.576 956.494 174.422 956.417 174.253C956.341 174.083 956.302 173.901 956.302 173.717V164C956.301 163.639 956.453 163.292 956.724 163.031L998.317 123.149C998.525 122.952 998.664 122.703 998.719 122.433C998.773 122.164 998.741 121.885 998.624 121.632C998.508 121.38 998.314 121.164 998.065 121.013C997.817 120.861 997.526 120.781 997.228 120.781H959.016C958.613 120.781 958.227 120.633 957.942 120.371C957.657 120.108 957.497 119.752 957.497 119.381V110.509C957.497 110.138 957.657 109.782 957.942 109.519C958.227 109.256 958.613 109.109 959.016 109.109H1021.81C1022.22 109.109 1022.6 109.256 1022.89 109.519C1023.17 109.782 1023.33 110.138 1023.33 110.509V119.399C1023.33 119.758 1023.18 120.103 1022.91 120.363L980.688 161.074C980.483 161.272 980.346 161.521 980.294 161.79C980.241 162.06 980.275 162.337 980.392 162.589C980.509 162.84 980.703 163.055 980.951 163.206C981.198 163.357 981.488 163.437 981.785 163.438H1022.05C1022.45 163.436 1022.83 163.581 1023.12 163.84C1023.4 164.099 1023.57 164.451 1023.57 164.82V164.82Z" fill="#FFFAFA"/>
<path d="M1053.11 162.385L1048 174.263C1047.88 174.522 1047.69 174.745 1047.44 174.901C1047.19 175.058 1046.89 175.141 1046.59 175.141H1030.97C1030.71 175.141 1030.47 175.084 1030.25 174.975C1030.03 174.865 1029.84 174.707 1029.7 174.514C1029.56 174.32 1029.48 174.099 1029.46 173.868C1029.43 173.638 1029.48 173.406 1029.58 173.194L1059.1 109.964C1059.22 109.713 1059.42 109.499 1059.66 109.349C1059.91 109.199 1060.2 109.119 1060.5 109.118H1079.34C1079.63 109.118 1079.93 109.199 1080.17 109.351C1080.42 109.504 1080.62 109.721 1080.73 109.975L1109.58 173.197C1109.67 173.41 1109.71 173.641 1109.69 173.87C1109.66 174.099 1109.58 174.319 1109.44 174.511C1109.3 174.702 1109.11 174.86 1108.89 174.968C1108.67 175.077 1108.43 175.134 1108.18 175.134H1091.96C1091.65 175.134 1091.35 175.049 1091.1 174.889C1090.85 174.729 1090.65 174.502 1090.54 174.237L1085.65 162.407C1085.54 162.143 1085.35 161.916 1085.1 161.756C1084.84 161.596 1084.54 161.51 1084.24 161.511H1054.51C1054.21 161.513 1053.91 161.597 1053.67 161.753C1053.42 161.909 1053.23 162.129 1053.11 162.385V162.385ZM1060.64 150.087H1078.15C1078.4 150.087 1078.64 150.033 1078.86 149.927C1079.07 149.822 1079.26 149.67 1079.4 149.484C1079.54 149.298 1079.63 149.083 1079.66 148.858C1079.69 148.633 1079.66 148.405 1079.57 148.194L1070.95 127.391C1070.84 127.129 1070.65 126.905 1070.4 126.746C1070.14 126.588 1069.85 126.503 1069.54 126.503C1069.24 126.503 1068.94 126.588 1068.68 126.746C1068.43 126.905 1068.24 127.129 1068.13 127.391L1059.23 148.187C1059.14 148.398 1059.11 148.627 1059.13 148.852C1059.16 149.078 1059.25 149.293 1059.39 149.48C1059.53 149.667 1059.72 149.821 1059.93 149.926C1060.15 150.032 1060.39 150.087 1060.64 150.087Z" fill="#FFFAFA"/>
<defs>
<linearGradient id="paint0_linear" x1="275.679" y1="158.617" x2="134.6" y2="41.6451" gradientUnits="userSpaceOnUse">
<stop stop-color="#BCBCBC"/>
<stop offset="0.127" stop-color="#C2C2C2"/>
<stop offset="0.31" stop-color="#D6D6D6"/>
<stop offset="0.399" stop-color="#E2E2E2"/>
<stop offset="0.654" stop-color="#BCBCBC"/>
<stop offset="1" stop-color="#D6D6D6"/>
</linearGradient>
<linearGradient id="paint1_linear" x1="156.369" y1="190.029" x2="-8.45225" y2="48.2263" gradientUnits="userSpaceOnUse">
<stop stop-color="#BCBCBC"/>
<stop offset="0.127" stop-color="#C2C2C2"/>
<stop offset="0.31" stop-color="#D6D6D6"/>
<stop offset="0.399" stop-color="#E2E2E2"/>
<stop offset="0.654" stop-color="#BCBCBC"/>
<stop offset="1" stop-color="#D6D6D6"/>
</linearGradient>
<linearGradient id="paint2_linear" x1="2430.95" y1="475.892" x2="2430.95" y2="518.218" gradientUnits="userSpaceOnUse">
<stop stop-color="#D6D6D6"/>
<stop offset="0.292" stop-color="#CBCBCB"/>
<stop offset="0.331" stop-color="#BEBEBE"/>
<stop offset="0.586" stop-color="#BBBBBB"/>
<stop offset="0.789" stop-color="#B0B0B0"/>
<stop offset="0.828" stop-color="#BDBDBD"/>
<stop offset="1" stop-color="#A3A3A3"/>
</linearGradient>
<linearGradient id="paint3_linear" x1="3039" y1="415.581" x2="3039" y2="447.938" gradientUnits="userSpaceOnUse">
<stop stop-color="#D6D6D6"/>
<stop offset="0.292" stop-color="#CBCBCB"/>
<stop offset="0.331" stop-color="#BEBEBE"/>
<stop offset="0.586" stop-color="#BBBBBB"/>
<stop offset="0.789" stop-color="#B0B0B0"/>
<stop offset="0.828" stop-color="#BDBDBD"/>
<stop offset="1" stop-color="#A3A3A3"/>
</linearGradient>
<linearGradient id="paint4_linear" x1="2522.91" y1="544.062" x2="2522.91" y2="584.122" gradientUnits="userSpaceOnUse">
<stop stop-color="#D6D6D6"/>
<stop offset="0.292" stop-color="#CBCBCB"/>
<stop offset="0.331" stop-color="#BEBEBE"/>
<stop offset="0.586" stop-color="#BBBBBB"/>
<stop offset="0.789" stop-color="#B0B0B0"/>
<stop offset="0.828" stop-color="#BDBDBD"/>
<stop offset="1" stop-color="#A3A3A3"/>
</linearGradient>
<linearGradient id="paint5_linear" x1="2576.34" y1="515.763" x2="2576.34" y2="548.942" gradientUnits="userSpaceOnUse">
<stop stop-color="#D6D6D6"/>
<stop offset="0.292" stop-color="#CBCBCB"/>
<stop offset="0.331" stop-color="#BEBEBE"/>
<stop offset="0.586" stop-color="#BBBBBB"/>
<stop offset="0.789" stop-color="#B0B0B0"/>
<stop offset="0.828" stop-color="#BDBDBD"/>
<stop offset="1" stop-color="#A3A3A3"/>
</linearGradient>
</defs>
</svg>
