<?xml version="1.0" encoding="utf-8"?>
<!-- Generator: Adobe Illustrator 25.0.0, SVG Export Plug-In . SVG Version: 6.00 Build 0)  -->
<svg version="1.1" id="Capa_1" xmlns="http://www.w3.org/2000/svg" xmlns:xlink="http://www.w3.org/1999/xlink" x="0px" y="0px"
	 viewBox="0 0 150 69.49" style="enable-background:new 0 0 150 69.49;" xml:space="preserve">
<style type="text/css">
	.st0{fill:#C9082D;}
	.st1{fill:#6F6D60;}
	.st2{fill:#FFFFFF;}
	.st3{fill:#716A5D;}
	.st4{fill:#1D1D1B;}
</style>
<rect y="9.06" class="st0" width="150" height="51.37"/>
<path class="st1" d="M109.43,69.49h0.08c3.91,0,7.6-0.57,11.16-1.65c3.83-1.33,7.46-4.01,9.66-7.33c3.62-5.3,6.91-15.55,7.06-25.75
	v-0.03c-0.14-10.2-3.43-20.45-7.06-25.75c-2.19-3.33-5.75-6-9.58-7.33C117.19,0.57,113.34,0,109.43,0c-3.91,0-7.76,0.57-11.32,1.64
	c-3.83,1.33-7.38,4.01-9.58,7.33c-3.62,5.3-6.91,15.55-7.06,25.75v0.03c0.14,10.21,3.43,20.45,7.06,25.75
	c2.19,3.33,5.74,5.99,9.58,7.32c3.56,1.08,7.33,1.66,11.24,1.66H109.43z"/>
<path class="st2" d="M135.23,34.74c0.12,7.69-2.22,17.01-4.48,21.98c-2.5,5.67-6.31,9.12-11.92,10.65
	c-3.02,0.78-6.19,1.17-9.44,1.17c-3.26,0-6.44-0.4-9.46-1.17c-5.61-1.53-9.43-4.98-11.92-10.65c-2.26-4.97-4.6-14.29-4.47-21.98
	C83.4,27.06,85.74,17.73,88,12.77c2.5-5.67,6.32-9.12,11.92-10.66c3.02-0.77,6.21-1.17,9.46-1.17c3.26,0,6.42,0.4,9.44,1.17
	c5.61,1.53,9.43,4.99,11.92,10.66C133.01,17.73,135.35,27.06,135.23,34.74"/>
<path class="st1" d="M109.47,9.15c2.68,0,5.36,0.38,7.84,1.04c2.63,0.75,4.8,2.57,5.88,5.04c2.36,5.06,3.91,12.35,3.91,19.51
	c0,7.17-1.55,14.45-3.91,19.51c-1.08,2.47-3.25,4.29-5.88,5.04c-2.47,0.67-5.15,1.04-7.84,1.04h-0.09c-2.68,0-5.36-0.37-7.84-1.04
	c-2.63-0.75-4.8-2.57-5.88-5.04c-2.36-5.06-3.91-12.35-3.91-19.51c0-7.16,1.55-14.45,3.91-19.51c1.09-2.47,3.25-4.29,5.88-5.04
	c2.47-0.67,5.15-1.04,7.84-1.04H109.47z"/>
<path class="st2" d="M113.27,18.93c-0.37-0.63-0.07-0.07-0.46-0.8"/>
<rect x="96.43" y="33.37" class="st2" width="8.86" height="2.58"/>
<path class="st2" d="M103.29,55.68c-0.19-0.41-0.26-0.55-0.28-0.97c1.86,0,3.1,0,5.07,0c-0.01,0.7-0.41,1.39-1.05,1.85
	c-0.7,0.51-1.87,0.62-2.65,0.19C103.93,56.54,103.53,56.1,103.29,55.68"/>
<path class="st2" d="M108.76,53.62l-2.72,0v-1.26l2.73,0l0.86-1.01c0.42,0.49,0.45,0.52,0.88,1.01h2.72v1.26l-2.73,0v3.13h-1.75
	V53.62z"/>
<path class="st2" d="M109.08,49.71c0.56-0.19,1.35-0.51,1.5-1.05c-0.04-0.84,0.54-1.51,0.97-2.18c0.22-0.29,0.24-0.47,0.18-0.78
	c0.87,0.03,1.75,0.76,2.08,1.57c0.35,0.82,0.21,1.91-0.32,2.59c-0.67,0.81-1.59,1.24-2.67,1.05
	C110.13,50.76,109.47,50.35,109.08,49.71"/>
<path class="st2" d="M102.54,38.41c-0.49-0.24-1.14-0.34-1.68-0.08c-0.43,0.12-0.89,0.63-0.94,1.15c-0.03,1.53,0.03,2.01,0,3.69
	c-0.03,0.26-0.17,0.39-0.5,0.39c-0.28-0.01-0.49-0.15-0.48-0.39V39.4c-0.02-0.4-0.09-0.79-0.37-1.09l-1.95,0.64l-0.18,0.06
	c0.49,0.37,0.72,0.38,0.76,0.98l0,4.82l0.03,0.25l0.07,0.17l0.05,0.15l0.07,0.12c0.32,0.52,0.87,0.72,1.25,0.82
	c0.17,0.05,0.46,0.07,0.63,0.08c0.5,0,0.98-0.03,1.5-0.39c0.8-0.63,0.63-1.73,0.65-3.33c0-0.45,0.03-0.7,0.31-0.96
	c0.23-0.18,0.56-0.23,0.86-0.17c0.34,0.09,0.39,0.12,0.73,0.34C103.36,40.52,103.4,38.82,102.54,38.41"/>
<path class="st2" d="M120.62,44.45c-1.42-1.4-3.89-3.35-4.08-4.17c-0.21-0.56-0.15-1.23-0.16-1.87c0.41-0.33,0.75-0.61,1.25-0.99
	c-0.04,0.99-0.18,1.99,0.3,2.57c1.16,1.16,2.22,2.2,3.27,3.23c0.39,0.42,0.7,1.03,0.44,1.58c-0.12,0.26-0.29,0.57-0.47,0.81
	C121.16,45.07,120.93,44.76,120.62,44.45"/>
<path class="st2" d="M112.56,37.35c1.08-0.02,1.44,0.01,2.57-0.01v7.61h-2.57L112.56,37.35z"/>
<path class="st2" d="M118.32,38.06c0.27-0.3,0.37-0.41,0.69-0.73l0.65,0.78v2.16c0.91-0.45,0.69-1.74,0.69-2.87
	c0.54,0.44,0.82,0.69,1.34,1.18c0.29,1.3-0.48,2.03-1.07,2.94l-2.3-2.19V38.06z"/>
<path class="st2" d="M120.41,32.24l0.34-1.45l1.12-0.17l0-3.59c-0.43,0.06-0.61,0.11-0.97,0.15v-2.73
	c-0.59,0.12-1.21,0.33-1.84,0.48v4.52c-0.01,0.22-0.35,0.29-0.43,0.29h-0.09c-0.22,0-0.45-0.15-0.45-0.31v-4.36l-1.8,0.23v1.84
	c-0.64,1.29-1.57,2.46-2.48,3.64c0.97,0.07,1.04,0.07,2,0.16l0.59,1.29H120.41z"/>
<path class="st2" d="M99.96,31.34c-0.03-1.19-0.08-1.97-0.11-3.14c0.37-0.1,0.73,0.13,1.01,0.35c-0.05,1.49-0.05,1.48-0.08,3.04
	h-0.82L99.96,31.34z"/>
<path class="st2" d="M99.8,24.51c-0.2-1.17-0.21-1.26-0.32-2.11h-0.75v-0.82c1.29,0,2,0,3.29,0l0,0.82h-0.77l-0.33,2.76
	C100.59,24.85,100.21,24.64,99.8,24.51"/>
<path class="st2" d="M99.67,20.98c-1.1-1.18-1.18-2.96-0.97-4.56l0-0.01c0.2,0.6,0.58,1.02,1.17,1.3c-0.07-0.31-0.34-0.6-0.43-0.94
	c-0.26-0.65-0.23-1.57,0.19-2.14c0.3-0.45,0.73-0.63,1.2-0.78c-0.18,0.53-0.24,1.18-0.01,1.72c0.31-0.24,0.32-0.26,0.56-0.48
	c0.09-0.09,0.13-0.12,0.21-0.17c0.44,0.94,0.94,2.23,0.65,3.32l-0.18,0.47c-0.07-0.77-0.19-1.14-0.71-1.42
	c-0.07,0.45,0.22,0.77,0.29,1.36c0.21,0.91,0.04,1.8-0.52,2.33H99.67z"/>
<path class="st2" d="M113.27,18.93l-1.14,1.25c-0.3-0.29-0.33-0.33-0.64-0.65c0.58-0.61,0.64-0.68,1.32-1.4"/>
<path class="st2" d="M114.76,15.89c0.23-1.08,0.35-2.32,1.54-2.78c0.45-0.13,1.06-0.07,1.43,0.27c0.51,0.37,0.66,0.99,0.54,1.57
	c-0.35,1.25-1.75,1.49-2.89,1.79L114.76,15.89z"/>
<polygon class="st2" points="122.63,33.37 122.63,35.96 113.77,35.95 113.77,33.38 "/>
<path class="st2" d="M101.23,50.68c-0.36-1.64,1.62-2.23,2.08-3.58c0.37-2.27,0.48-4.67,2.06-6.44c0.16-3.34,1.24-6.29,3.61-8.72
	c-0.11-0.75-0.42-1.4-0.64-2.11c-0.31-0.01-0.52-0.07-0.8-0.32c-0.21-0.29-0.29-0.5-0.34-0.86c-0.83,1.02-1.85,2.17-2.98,2.86
	c-0.21,0.11-0.47-0.13-0.85-0.48c-1.38-1.09-1.61-3.56-3.72-3.45c-0.96-0.32-0.91-1.45-1.07-2.3c0.36-0.26,0.93-0.24,1.36-0.08
	c1.31,0.7,2.19,2.18,3.43,3.18c0.33,0.26,0.63,0.61,0.94,0.74c0.81-0.7,1.47-1.3,2.02-2.39c0.38-0.61,1.02-0.88,1.72-0.89l0.5-0.59
	l-0.27-1.47c-0.51-0.66-0.94-1.35-1.28-2.08c0.18-0.85,0.29-1.82,1.15-2.29c0.56-0.35,1.02,0.44,1.47-0.06
	c0.34-0.07,0.62,0.02,0.85,0.21c0.35,0.6,0.76,1.2,0.78,1.9c-0.21,0.68-0.53,1.32-0.86,1.95c-0.08,0.14-0.27,0.19-0.4,0.29
	c0.08,0.29,0.14,0.61,0.34,0.83c0.26,0.06,0.49,0.1,0.8,0.05c0.25-0.75,1.05-1.08,1.71-1.28l1.47-0.96
	c-0.23-1.11,0.48-2.09,0.08-3.21c-0.84-0.39-1.08-1.34-1.26-2.08c0.13-0.47,0.36-0.96,0.69-1.35l0.05,0.06
	c0.8,0.93,1.54,1.89,1.79,3.05c0.15,1.48,0.29,3,0.19,4.54c-0.79,0.79-1.75,1.26-2.65,1.85l-0.67,1.28
	c-0.08,1.32-0.47,2.52-0.67,3.8c0.57,1.55,1.25,3.61,0.74,5.04c-0.38,0.86-1.19,1.32-1.78,1.79l-1.5,1.2
	c1.51,1.66,1.14,3.55,1.21,5.96c-0.01,0.58,1.03,1.07,0.47,1.73c-0.47,0.74-1.19,1.35-1.07,2.33c-0.46,0.78-1.57,0.94-2.09,0.94
	c-0.11,0-0.21-0.08-0.21-0.19c0.11-0.4,0.42-0.71,0.59-1.09c0.54-0.82,0.29-1.96,0.96-2.73c-0.55-1.79-1.38-3.45-1.6-5.37
	l-0.02-0.12c-0.44,0.88-0.2,1.74,0.04,2.43c-1.48,1.87-3.09,3.67-3.09,6.13c-0.63,1.13-1.53,2.15-2,3.34
	c-0.16,0.2-0.46,0.02-0.63-0.08C101.47,51.34,101.37,51.06,101.23,50.68"/>
<path class="st2" d="M117.49,42.61c1.42,1.4,3.88,3.35,4.09,4.18c0.21,0.56,0.15,1.22,0.16,1.87c-0.41,0.32-0.75,0.6-1.25,0.99
	c0.04-0.98,0.18-1.99-0.3-2.57c-1.16-1.16-2.22-2.2-3.26-3.23c-0.39-0.42-0.7-1.02-0.44-1.58c0.12-0.27,0.29-0.57,0.47-0.82
	C116.95,42,117.18,42.31,117.49,42.61"/>
<path class="st2" d="M119.8,49.01c-0.27,0.3-0.37,0.41-0.69,0.72l-0.65-0.78v-2.16c-0.91,0.45-0.69,1.74-0.69,2.86
	c-0.54-0.44-0.82-0.69-1.34-1.18c-0.29-1.29,0.49-2.03,1.07-2.94l2.29,2.19V49.01z"/>
<path class="st2" d="M115.96,55.68c0.19-0.41,0.26-0.55,0.28-0.97c-1.86,0-3.1,0-5.07,0c0.01,0.7,0.41,1.39,1.05,1.85
	c0.7,0.51,1.87,0.62,2.65,0.19C115.32,56.54,115.72,56.1,115.96,55.68"/>
<path class="st1" d="M110.32,66.74c-0.02-1.41,1.35-2.12,2.22-3.05c0.24-0.23,0.32-0.67,0.16-1.04c-0.1-0.23-0.26-0.34-0.44-0.39
	c-0.31-0.07-0.56-0.02-0.75,0.14c-0.27,0.25-0.34,0.57-0.33,0.92l-0.96,0.06c-0.08-0.53,0.04-1.05,0.37-1.45
	c0.45-0.48,1.12-0.62,1.78-0.57c0.52,0.08,1.14,0.4,1.35,0.95c0.28,0.59,0.19,1.36-0.26,1.86c-0.57,0.61-1.31,0.93-1.78,1.62
	l2.43-0.14c0.02,0.3,0.03,0.59,0.05,0.87L110.32,66.74z"/>
<path class="st1" d="M101.7,60.66l-0.01,0.04l-1.59,4.85l-1.01-0.33l1.09-3.32l0.02-0.06c-0.4-0.14-0.89-0.28-1.28-0.42l0.21-0.63
	c0.51,0.13,1.04,0.22,1.48-0.15c0.16-0.12,0.19-0.16,0.28-0.26L101.7,60.66z"/>
<path class="st1" d="M119.72,64.3c-0.13,0.15-0.36,0.27-0.61,0.33c-0.25,0.06-0.51,0.07-0.69,0c-0.25-0.09-0.42-0.29-0.49-0.51
	c-0.1-0.33,0-0.68,0.29-0.88c0.12-0.08,0.3-0.17,0.49-0.22c0.19-0.04,0.39-0.05,0.54-0.03c0.35,0.04,0.6,0.31,0.66,0.65
	C119.96,63.85,119.9,64.11,119.72,64.3 M117.6,61.96c-0.12-0.21-0.12-0.57,0.09-0.78c0.12-0.13,0.31-0.23,0.5-0.27
	c0.19-0.05,0.4-0.05,0.57,0.01c0.29,0.09,0.45,0.4,0.44,0.64c0,0.19-0.09,0.34-0.21,0.45c-0.12,0.11-0.3,0.19-0.48,0.23
	c-0.18,0.05-0.37,0.06-0.53,0.02C117.83,62.22,117.68,62.13,117.6,61.96 M120.94,63.35c-0.13-0.48-0.39-0.86-0.93-1.02l-0.31-0.07
	c0.31-0.22,0.61-0.67,0.5-1.11c-0.07-0.5-0.44-0.82-0.89-0.99c-0.4-0.12-0.86-0.1-1.3,0.02c-0.44,0.1-0.87,0.3-1.16,0.59
	c-0.32,0.36-0.49,0.81-0.32,1.29c0.11,0.44,0.58,0.7,0.96,0.76l-0.24,0.2c-0.4,0.38-0.46,0.85-0.35,1.33
	c0.12,0.54,0.55,0.96,1.07,1.11c0.4,0.1,0.88,0.1,1.34-0.01c0.46-0.12,0.89-0.33,1.19-0.61C120.89,64.45,121.08,63.88,120.94,63.35"
	/>
<path class="st1" d="M106.36,65.72c-0.17,0.1-0.42,0.15-0.68,0.13c-0.26-0.01-0.5-0.09-0.66-0.21c-0.21-0.16-0.32-0.4-0.31-0.63
	c0.01-0.34,0.2-0.65,0.54-0.76c0.14-0.04,0.34-0.07,0.53-0.06c0.2,0.01,0.39,0.06,0.52,0.13c0.32,0.14,0.48,0.47,0.44,0.82
	C106.73,65.36,106.59,65.58,106.36,65.72 M105.03,62.86c-0.05-0.24,0.05-0.58,0.32-0.71c0.16-0.09,0.36-0.12,0.56-0.11
	c0.2,0.01,0.4,0.07,0.54,0.18c0.25,0.17,0.31,0.52,0.23,0.75c-0.06,0.18-0.19,0.3-0.33,0.37c-0.15,0.07-0.34,0.09-0.53,0.08
	c-0.19-0.01-0.37-0.06-0.51-0.14C105.18,63.17,105.07,63.04,105.03,62.86 M107.81,65.17c0.02-0.49-0.12-0.94-0.58-1.24l-0.27-0.16
	c0.37-0.12,0.78-0.46,0.81-0.91c0.08-0.5-0.17-0.91-0.55-1.21c-0.34-0.23-0.79-0.35-1.25-0.37c-0.46-0.04-0.92,0.03-1.29,0.22
	c-0.41,0.25-0.71,0.63-0.7,1.13c-0.02,0.45,0.34,0.84,0.7,1.01l-0.29,0.12c-0.5,0.25-0.69,0.67-0.73,1.17
	c-0.04,0.55,0.24,1.08,0.7,1.38c0.35,0.22,0.81,0.35,1.28,0.38c0.47,0.03,0.95-0.05,1.32-0.22
	C107.44,66.21,107.79,65.73,107.81,65.17"/>
<rect x="125.53" y="15.88" transform="matrix(0.9182 -0.3962 0.3962 0.9182 3.9782 52.1006)" class="st1" width="5.15" height="1.07"/>
<path class="st1" d="M112.87,7.72l-1.22-5.29l1.12,0.11c0.23,1.31,0.46,2.8,0.72,3.9c0.48-1.03,1.01-2.44,1.49-3.68l1.1,0.11
	l-2.24,4.94L112.87,7.72z"/>
<polygon class="st1" points="92.76,10.76 91.61,12.81 90.64,12.27 91.96,9.91 91.21,9.49 89.37,12.79 93.86,15.31 95.71,12 
	94.96,11.59 93.64,13.95 92.39,13.24 93.54,11.19 "/>
<path class="st1" d="M89.35,34.95l-1.44,0h-0.01c0.02-1.14-0.15-1.82,0.53-1.95c0.24-0.06,0.53-0.04,0.71,0.14
	C89.43,33.43,89.34,33.9,89.35,34.95 M87.13,34.96l-1.26,0c0.04-1.18-0.16-1.81,0.56-1.89c0.43-0.03,0.55,0.07,0.64,0.32
	C87.16,33.66,87.13,33.93,87.13,34.96 M90.03,32.63c-0.24-0.55-0.84-0.77-1.45-0.74c-0.52,0.06-0.92,0.41-1.13,0.95
	c-0.08-0.32-0.37-0.71-0.86-0.77c-0.52-0.06-1.01,0.08-1.26,0.51c-0.34,0.44-0.19,2.35-0.23,3.46l5.11,0l0-0.37
	C90.18,33.62,90.3,33.38,90.03,32.63"/>
<polygon class="st1" points="130.72,18.76 131.54,18.55 132.57,22.57 131.76,22.78 131.37,21.29 127.24,22.36 126.97,21.32 
	131.1,20.25 "/>
<path class="st1" d="M104.74,8.02c-0.57,0.1-1.16,0.04-1.64-0.25c-0.41-0.24-0.55-0.54-0.63-0.92l-0.59-3.68L102.93,3l0.59,3.68
	c0.06,0.3,0.32,0.49,0.6,0.54c0.15,0.04,0.33,0.04,0.49,0.01"/>
<path class="st3" d="M104.75,8.02c0.57-0.09,1.11-0.32,1.47-0.75c0.31-0.35,0.36-0.69,0.31-1.07l-0.59-3.67l-1.05,0.17l0.59,3.68
	c0.04,0.28-0.16,0.56-0.4,0.7c-0.13,0.09-0.3,0.14-0.46,0.16"/>
<path class="st1" d="M130.12,27.67l-0.18-1.27l2.22,0.33h0.01l0,0l0,0h-0.01L130.12,27.67z M133.1,26.05l-5.35-1.07l0.15,1.04
	l1.16,0.21l0.26,1.84l-1.06,0.52l0.15,1.04l4.85-2.5L133.1,26.05z"/>
<path class="st1" d="M132.32,34.89l0.1-0.02l0.12-0.03l0.08-0.03c0.34-0.18,0.42-0.64,0.4-1.01c-0.01-0.37-0.13-0.75-0.48-0.89
	c-0.18-0.05-0.41-0.07-0.53,0.12c-0.58,0.86-0.18,2.68-1.68,3c-0.65,0.11-1.22-0.18-1.56-0.7c-0.47-0.83-0.5-2.13,0.03-2.93
	c0.32-0.42,0.76-0.68,1.28-0.68l0.06,0.98c-0.32,0.04-0.64,0.21-0.78,0.52c-0.22,0.52-0.16,1.34,0.21,1.64
	c0.14,0.15,0.46,0.14,0.63,0.05c0.6-0.43,0.47-1.49,0.77-2.21c0.1-0.3,0.38-0.61,0.66-0.76c0.53-0.23,1.2-0.15,1.63,0.27
	c0.68,0.64,0.72,1.91,0.4,2.68c-0.18,0.53-0.76,0.92-1.36,0.96l-0.06-0.99L132.32,34.89z"/>
<path class="st3" d="M90.9,27.13c-0.09,0.57-0.32,1.12-0.74,1.48c-0.35,0.31-0.69,0.36-1.07,0.31l-3.68-0.58l0.17-1.05l3.68,0.58
	c0.31,0.04,0.57-0.16,0.7-0.41c0.09-0.14,0.14-0.3,0.16-0.47"/>
<path class="st1" d="M90.91,27.12c0.09-0.57,0.04-1.16-0.26-1.64c-0.24-0.41-0.55-0.55-0.92-0.63l-3.68-0.58l-0.17,1.05l3.68,0.58
	c0.28,0.05,0.49,0.32,0.55,0.6c0.04,0.15,0.04,0.33,0.01,0.49"/>
<path class="st1" d="M97.24,8.45l-0.57-2.17l-0.01-0.01l0,0.01V6.27l0,0.01l1.66,1.51L97.24,8.45z M96.61,5.12L95.67,5.7l1.13,5.33
	l0.9-0.55l-0.26-1.15l1.59-0.96l0.9,0.77l0.9-0.55L96.61,5.12z"/>
<polygon class="st1" points="121.59,6.8 119.42,5.89 119.85,4.87 122.34,5.91 122.67,5.12 119.18,3.66 117.19,8.41 120.68,9.87 
	121.01,9.08 118.51,8.04 119.07,6.71 121.25,7.62 "/>
<path class="st1" d="M89.23,20.04l-1.29-0.38c0.28-0.88,0.41-1.76,1.03-1.71c0.25,0.04,0.42,0.1,0.57,0.29
	C89.78,18.54,89.47,19.19,89.23,20.04 M90.26,18.2c0-0.35-0.02-0.65-0.32-0.93c-0.28-0.29-0.73-0.43-1.17-0.4
	c-1.15,0.18-1.3,1.49-1.93,3.57l4.93,1.47l0.31-1.03l-1.94-0.58l-0.08-0.03c0.13-0.47,0.32-1.07,0.42-1.2
	c0.36-0.82,1.66-0.01,2.18-0.09l0.3-1.02C92.06,18.02,90.88,17.23,90.26,18.2"/>
<path class="st1" d="M126.99,11.15c-0.18,0.18-0.34,0.28-0.57,0.29c-0.39,0.02-0.73-0.62-1.29-1.31l1.07-0.82
	C126.76,10.06,127.4,10.68,126.99,11.15 M126.22,7.96l-4.09,3.12l0.65,0.85l1.61-1.23l0.07-0.05c0.31,0.39,0.68,0.89,0.73,1.05
	c0.45,0.77-0.96,1.35-1.2,1.81l0.64,0.84c0.48-0.74,1.81-1.23,1.39-2.31c0.29,0.21,0.54,0.37,0.94,0.29
	c0.4-0.06,0.78-0.34,1.01-0.71C128.5,10.59,127.53,9.7,126.22,7.96"/>
<g>
	<path class="st2" d="M9.97,46.37v-0.41c0-0.56-0.16-0.83-0.49-0.83c-0.23,0-0.38,0.05-0.46,0.16C8.94,45.4,8.9,45.57,8.9,45.8v3.18
		c0,0.19,0.04,0.33,0.13,0.43c0.09,0.1,0.22,0.15,0.41,0.15c0.23,0,0.38-0.09,0.45-0.26C9.96,49.13,10,48.9,10,48.63v-0.58h1.51
		v0.79c0,0.58-0.18,1.04-0.53,1.37c-0.36,0.33-0.91,0.5-1.65,0.5c-0.68,0-1.17-0.17-1.47-0.52c-0.31-0.35-0.46-0.86-0.46-1.53v-2.64
		c0-0.7,0.16-1.21,0.49-1.55c0.33-0.33,0.84-0.5,1.53-0.5c0.66,0,1.17,0.15,1.53,0.45c0.36,0.3,0.53,0.77,0.53,1.41v0.54H9.97z"/>
	<path class="st2" d="M13.53,48.38v0.84c0,0.15,0.03,0.27,0.1,0.36c0.07,0.09,0.17,0.14,0.31,0.14c0.22,0,0.36-0.07,0.4-0.2
		c0.05-0.14,0.07-0.34,0.07-0.62h1.37c0,1.21-0.6,1.81-1.79,1.81c-0.54,0-0.98-0.12-1.32-0.36c-0.34-0.24-0.52-0.62-0.52-1.13v-1.96
		c0-0.58,0.16-1,0.49-1.26c0.33-0.26,0.78-0.39,1.35-0.39c0.54,0,0.98,0.11,1.32,0.33c0.34,0.22,0.52,0.57,0.52,1.06v1.38H13.53z
		 M14.48,47.48v-0.47c0-0.12-0.04-0.23-0.11-0.34c-0.07-0.1-0.19-0.15-0.35-0.15c-0.18,0-0.3,0.06-0.37,0.18
		c-0.07,0.12-0.11,0.27-0.11,0.47v0.32H14.48z"/>
	<path class="st2" d="M17.77,45.76v0.73c0.09-0.28,0.22-0.49,0.4-0.65c0.18-0.15,0.4-0.23,0.67-0.23v1.55
		c-0.06-0.01-0.12-0.02-0.2-0.03c-0.07-0.01-0.15-0.01-0.22-0.01c-0.17,0-0.3,0.02-0.41,0.06c-0.11,0.04-0.16,0.18-0.16,0.41v2.97
		H16.5v-4.8H17.77z"/>
	<path class="st2" d="M19.1,46.75v-0.99h0.54v-1.38h1.37v1.38h0.65v0.99h-0.65v2.52c0,0.13,0.02,0.21,0.07,0.26
		c0.05,0.05,0.12,0.07,0.23,0.07c0.06,0,0.14,0,0.22,0h0.13v0.96c-0.13,0.02-0.27,0.03-0.44,0.05c-0.17,0.01-0.31,0.02-0.44,0.02
		c-0.76,0-1.14-0.37-1.14-1.11v-2.78H19.1z"/>
	<path class="st2" d="M22.37,45.28v-1.16h1.37v1.16H22.37z M22.37,50.57v-4.81h1.37v4.81H22.37z"/>
	<path class="st2" d="M24.96,46.75h-0.55v-0.99h0.54l0.01-0.42c0-0.44,0.11-0.75,0.33-0.94c0.22-0.19,0.56-0.28,1.02-0.28h0.6v0.99
		h-0.29c-0.09,0-0.16,0.01-0.21,0.04c-0.05,0.03-0.08,0.07-0.08,0.12v0.49h0.58v0.99h-0.58v3.82h-1.37V46.75z"/>
	<path class="st2" d="M27.63,45.28v-1.16h1.37v1.16H27.63z M27.63,50.57v-4.81h1.37v4.81H27.63z"/>
	<path class="st2" d="M32.13,47.54l-0.01-0.09c-0.02-0.18-0.03-0.37-0.05-0.55c-0.06-0.2-0.19-0.3-0.37-0.3
		c-0.16,0-0.27,0.05-0.33,0.15c-0.06,0.1-0.09,0.25-0.09,0.43v1.99c0,0.17,0.03,0.31,0.09,0.41c0.06,0.1,0.18,0.15,0.34,0.15
		c0.13,0,0.23-0.06,0.31-0.17c0.08-0.11,0.12-0.32,0.12-0.63v-0.32h1.32c0,0.17-0.01,0.37-0.03,0.6c-0.02,0.24-0.06,0.46-0.12,0.66
		c-0.06,0.21-0.21,0.39-0.44,0.54c-0.23,0.15-0.5,0.25-0.82,0.28c-0.06,0-0.14,0-0.25,0.01c-0.11,0.01-0.18,0.01-0.21,0.01
		c-0.52,0-0.93-0.12-1.24-0.36c-0.3-0.24-0.46-0.62-0.46-1.14v-1.96c0-0.59,0.14-1.02,0.43-1.27c0.28-0.25,0.71-0.38,1.27-0.38
		c0.66,0,1.13,0.15,1.4,0.45c0.27,0.3,0.4,0.79,0.4,1.47H32.13z"/>
	<path class="st2" d="M36.43,50.14c-0.18,0.2-0.36,0.34-0.53,0.44c-0.18,0.09-0.39,0.14-0.64,0.14c-0.39,0-0.7-0.12-0.92-0.35
		C34.11,50.13,34,49.81,34,49.43c0-0.49,0.11-0.86,0.32-1.09c0.21-0.24,0.48-0.41,0.8-0.51c0.32-0.1,0.62-0.2,0.89-0.29
		c0.25-0.11,0.37-0.28,0.37-0.51c0-0.14-0.04-0.26-0.12-0.36c-0.08-0.09-0.18-0.14-0.31-0.14c-0.22,0-0.37,0.06-0.43,0.19
		c-0.06,0.13-0.09,0.31-0.09,0.56h-1.37c0-0.58,0.16-1,0.49-1.26c0.32-0.26,0.78-0.4,1.36-0.4c0.68,0,1.15,0.11,1.43,0.34
		c0.27,0.22,0.41,0.6,0.41,1.13v2.95c0,0.07,0.01,0.16,0.03,0.25c0.02,0.09,0.05,0.19,0.08,0.28h-1.33L36.43,50.14z M36.38,48.23
		c-0.23,0.1-0.38,0.17-0.45,0.21c-0.08,0.03-0.16,0.08-0.25,0.15c-0.09,0.07-0.16,0.15-0.22,0.24c-0.06,0.1-0.09,0.22-0.09,0.37
		c0,0.15,0.04,0.28,0.13,0.37c0.09,0.09,0.22,0.14,0.38,0.14c0.18,0,0.31-0.07,0.39-0.22c0.08-0.15,0.12-0.32,0.12-0.51V48.23z"/>
	<path class="st2" d="M38.2,46.75v-0.99h0.54v-1.38h1.37v1.38h0.65v0.99H40.1v2.52c0,0.13,0.02,0.21,0.07,0.26
		c0.05,0.05,0.12,0.07,0.23,0.07c0.06,0,0.14,0,0.22,0h0.13v0.96c-0.13,0.02-0.27,0.03-0.44,0.05c-0.17,0.01-0.31,0.02-0.44,0.02
		c-0.76,0-1.14-0.37-1.14-1.11v-2.78H38.2z"/>
	<path class="st2" d="M41.47,45.28v-1.16h1.37v1.16H41.47z M41.47,50.57v-4.81h1.37v4.81H41.47z"/>
	<path class="st2" d="M43.7,47.26c0-0.59,0.16-1.01,0.47-1.27c0.31-0.25,0.75-0.38,1.32-0.38c1.19,0,1.79,0.55,1.79,1.65v1.96
		c0,0.52-0.16,0.89-0.48,1.13c-0.32,0.24-0.75,0.36-1.31,0.36c-0.53,0-0.96-0.12-1.29-0.36c-0.33-0.24-0.49-0.62-0.49-1.14V47.26z
		 M45.07,49.3c0.03,0.28,0.17,0.42,0.42,0.42c0.14,0,0.24-0.03,0.31-0.1c0.07-0.07,0.1-0.17,0.12-0.32v-2.14
		c0-0.17-0.03-0.31-0.09-0.41c-0.06-0.1-0.17-0.15-0.33-0.15c-0.15,0-0.26,0.05-0.32,0.15c-0.07,0.1-0.1,0.24-0.1,0.4V49.3z"/>
	<path class="st2" d="M49.33,45.76v0.6c0.07-0.2,0.2-0.37,0.39-0.52c0.18-0.15,0.38-0.23,0.58-0.23c0.34,0,0.63,0.09,0.86,0.27
		c0.24,0.18,0.36,0.42,0.36,0.74v3.94h-1.37v-3.44c0-0.13-0.03-0.22-0.08-0.29s-0.15-0.1-0.28-0.1c-0.25,0-0.37,0.13-0.37,0.4v3.44
		h-1.37v-4.8H49.33z"/>
</g>
<g>
	<path class="st2" d="M7.48,41.32v-7.15h2.17c0.7,0,1.25,0.14,1.65,0.42c0.4,0.28,0.61,0.76,0.61,1.43c0,0.34-0.06,0.63-0.19,0.89
		c-0.13,0.26-0.33,0.46-0.62,0.62c0.37,0.22,0.61,0.45,0.74,0.69c0.12,0.24,0.19,0.58,0.19,1.04c0,0.7-0.19,1.22-0.57,1.56
		c-0.38,0.34-0.92,0.51-1.62,0.51H7.48z M9.16,36.98c0.42,0,0.7-0.04,0.85-0.13c0.15-0.09,0.22-0.33,0.22-0.71
		c0-0.31-0.08-0.5-0.25-0.57c-0.17-0.07-0.44-0.1-0.83-0.1V36.98z M9.16,40.03c0.41,0,0.72-0.02,0.91-0.07
		c0.19-0.04,0.29-0.33,0.29-0.86c0-0.37-0.09-0.61-0.27-0.7c-0.18-0.09-0.49-0.14-0.92-0.14V40.03z"/>
	<path class="st2" d="M12.76,34.17h1.68v5.39c0,0.2,0.04,0.36,0.12,0.47c0.08,0.11,0.24,0.17,0.46,0.17c0.2,0,0.34-0.07,0.43-0.21
		c0.09-0.14,0.14-0.3,0.14-0.48v-5.34h1.68v5.17c0,0.66-0.17,1.18-0.52,1.57c-0.35,0.38-0.93,0.58-1.73,0.58
		c-0.73,0-1.29-0.18-1.67-0.53c-0.38-0.35-0.58-0.89-0.58-1.61V34.17z"/>
	<path class="st2" d="M19.74,41.32h-1.68v-7.15h2.45c0.71,0,1.23,0.15,1.56,0.46c0.33,0.31,0.5,0.81,0.5,1.51
		c0,0.42-0.06,0.76-0.19,1.01c-0.12,0.25-0.36,0.46-0.7,0.62c0.25,0.06,0.45,0.18,0.6,0.34c0.15,0.16,0.23,0.37,0.23,0.6
		c0,0.34,0.01,0.75,0.04,1.22c0.03,0.47,0.07,0.81,0.11,1.04c0.04,0.11,0.1,0.19,0.16,0.25v0.1h-1.82
		c-0.03-0.09-0.06-0.16-0.07-0.22c-0.02-0.06-0.02-0.12-0.02-0.19v-0.69v-0.14v-0.11c0-0.15,0-0.31,0-0.47
		c-0.02-0.11-0.04-0.25-0.05-0.4c-0.02-0.15-0.07-0.29-0.15-0.41c-0.08-0.13-0.22-0.19-0.41-0.19h-0.56V41.32z M19.74,37.21h0.57
		c0.22,0,0.38-0.08,0.47-0.25c0.09-0.17,0.13-0.38,0.13-0.63c0-0.39-0.08-0.64-0.24-0.73c-0.16-0.09-0.47-0.14-0.93-0.14V37.21z"/>
	<path class="st2" d="M23.4,41.32v-7.15h3.84v1.43h-2.16v1.32h2.1v1.43h-2.1v1.54h2.28v1.43H23.4z"/>
	<path class="st2" d="M27.81,41.32l1.56-7.15h2.02l1.55,7.15h-1.7l-0.24-1.39H29.7l-0.2,1.39H27.81z M30.39,35.46l-0.5,3.21h0.97
		L30.39,35.46z"/>
	<path class="st2" d="M33.43,34.17h1.68v5.39c0,0.2,0.04,0.36,0.12,0.47c0.08,0.11,0.24,0.17,0.46,0.17c0.2,0,0.34-0.07,0.43-0.21
		c0.09-0.14,0.14-0.3,0.14-0.48v-5.34h1.68v5.17c0,0.66-0.17,1.18-0.52,1.57c-0.35,0.38-0.93,0.58-1.73,0.58
		c-0.73,0-1.29-0.18-1.67-0.53c-0.38-0.35-0.58-0.89-0.58-1.61V34.17z"/>
	<path class="st2" d="M42.37,41.32l-1.55-7.15h1.68l0.86,5.01l0.88-5.01h1.68l-1.56,7.15H42.37z"/>
	<path class="st2" d="M46.45,41.32v-7.15h3.84v1.43h-2.16v1.32h2.1v1.43h-2.1v1.54h2.28v1.43H46.45z"/>
	<path class="st2" d="M52.85,41.32h-1.68v-7.15h2.45c0.71,0,1.23,0.15,1.56,0.46c0.33,0.31,0.5,0.81,0.5,1.51
		c0,0.42-0.06,0.76-0.19,1.01c-0.12,0.25-0.36,0.46-0.7,0.62c0.25,0.06,0.45,0.18,0.6,0.34c0.15,0.16,0.23,0.37,0.23,0.6
		c0,0.34,0.01,0.75,0.04,1.22c0.03,0.47,0.07,0.81,0.11,1.04c0.04,0.11,0.1,0.19,0.16,0.25v0.1h-1.82
		c-0.03-0.09-0.06-0.16-0.07-0.22c-0.02-0.06-0.02-0.12-0.02-0.19v-0.69v-0.14v-0.11c0-0.15,0-0.31,0-0.47
		c-0.02-0.11-0.04-0.25-0.05-0.4c-0.02-0.15-0.07-0.29-0.15-0.41c-0.08-0.13-0.22-0.19-0.41-0.19h-0.56V41.32z M52.85,37.21h0.57
		c0.22,0,0.38-0.08,0.47-0.25c0.09-0.17,0.13-0.38,0.13-0.63c0-0.39-0.08-0.64-0.24-0.73c-0.16-0.09-0.47-0.14-0.93-0.14V37.21z"/>
	<path class="st2" d="M56.56,41.32v-7.15h1.68v7.15H56.56z"/>
	<path class="st2" d="M58.94,34.17h4.35v1.43h-1.35v5.72h-1.68V35.6h-1.32V34.17z"/>
	<path class="st2" d="M63.58,41.32l1.56-7.15h2.02l1.55,7.15h-1.7l-0.24-1.39h-1.32l-0.2,1.39H63.58z M66.15,35.46l-0.5,3.21h0.97
		L66.15,35.46z"/>
	<path class="st2" d="M70.5,38.93v0.5c0,0.23,0.05,0.42,0.15,0.56c0.1,0.14,0.27,0.21,0.52,0.21c0.18,0,0.32-0.07,0.42-0.2
		c0.1-0.14,0.14-0.31,0.14-0.51c0-0.26-0.07-0.45-0.21-0.59c-0.14-0.13-0.37-0.29-0.69-0.48c-0.32-0.19-0.58-0.35-0.78-0.49
		c-0.2-0.14-0.38-0.3-0.52-0.48c-0.15-0.18-0.27-0.38-0.35-0.62c-0.09-0.24-0.13-0.5-0.13-0.8c0-0.66,0.19-1.16,0.56-1.51
		c0.37-0.35,0.89-0.52,1.55-0.52c0.71,0,1.24,0.21,1.59,0.63c0.36,0.42,0.53,0.98,0.53,1.69h-1.54c0-0.31-0.03-0.56-0.1-0.75
		c-0.06-0.19-0.22-0.28-0.46-0.28c-0.18,0-0.33,0.04-0.43,0.12c-0.1,0.08-0.15,0.2-0.15,0.38v0.1c0,0.17,0.04,0.3,0.12,0.41
		c0.08,0.11,0.21,0.23,0.38,0.35c0.41,0.24,0.72,0.43,0.96,0.57c0.23,0.14,0.45,0.3,0.63,0.47c0.19,0.18,0.33,0.39,0.43,0.65
		c0.1,0.26,0.15,0.6,0.15,1.02c0,0.69-0.18,1.21-0.55,1.58c-0.37,0.37-0.9,0.55-1.6,0.55c-0.72,0-1.27-0.17-1.63-0.51
		c-0.36-0.34-0.55-0.77-0.55-1.28v-0.76H70.5z"/>
</g>
<g>
	<path class="st4" d="M8.41,64.81l0-0.22c-0.02-0.38-0.23-0.57-0.64-0.57c-0.36,0-0.6,0.1-0.71,0.3c-0.06,0.1-0.09,0.19-0.1,0.29
		L6.95,65v1.88c0,0.34,0.03,0.56,0.09,0.66c0.13,0.2,0.34,0.3,0.65,0.3c0.4,0,0.63-0.2,0.69-0.61l0.03-0.31v-0.16h0.76v0.17
		l-0.01,0.3c-0.02,0.36-0.14,0.63-0.34,0.82c-0.13,0.12-0.27,0.2-0.44,0.25c-0.2,0.06-0.42,0.09-0.66,0.09
		c-0.2,0-0.4-0.02-0.58-0.06c-0.63-0.12-0.94-0.57-0.94-1.33v-1.9c0-0.2,0.01-0.4,0.04-0.57c0.03-0.22,0.09-0.4,0.2-0.54
		c0.24-0.32,0.68-0.49,1.3-0.49c0.88,0.01,1.35,0.3,1.42,0.89c0.01,0.11,0.02,0.24,0.02,0.37v0.19H8.41V64.81z"/>
	<path class="st4" d="M10.49,65.09c0-0.39,0.04-0.68,0.1-0.86c0.1-0.29,0.33-0.49,0.67-0.61c0.25-0.09,0.52-0.14,0.81-0.14
		c0.28,0,0.55,0.05,0.81,0.14c0.34,0.12,0.56,0.33,0.67,0.61c0.07,0.18,0.1,0.47,0.11,0.86v1.59c0,0.29-0.01,0.54-0.04,0.75
		c-0.09,0.63-0.59,0.95-1.51,0.95c-0.67,0-1.12-0.15-1.35-0.44c-0.17-0.22-0.26-0.64-0.25-1.26V65.09z M11.25,66.68
		c0,0.4,0.03,0.66,0.08,0.78c0.05,0.12,0.15,0.21,0.29,0.28c0.14,0.07,0.29,0.1,0.44,0.1c0.14,0,0.27-0.03,0.4-0.08
		c0.24-0.1,0.37-0.29,0.4-0.55c0.01-0.15,0.02-0.33,0.02-0.53v-1.59c0-0.34-0.03-0.59-0.11-0.73c-0.12-0.23-0.36-0.34-0.71-0.34
		c-0.14,0-0.26,0.02-0.38,0.07c-0.25,0.09-0.39,0.28-0.42,0.55c-0.02,0.13-0.02,0.27-0.02,0.44V66.68z"/>
	<path class="st4" d="M15.4,64.18L15.74,64c0.1-0.06,0.24-0.15,0.39-0.26l0.24-0.18h0.59v4.75h-0.71V64.3l-0.26,0.18
		c-0.11,0.07-0.22,0.13-0.32,0.17l-0.27,0.09V64.18z"/>
	<path class="st4" d="M20.88,66.41c-0.22,0.11-0.47,0.17-0.75,0.17c-0.18,0-0.35-0.02-0.5-0.07c-0.35-0.11-0.56-0.35-0.63-0.72
		c-0.05-0.22-0.07-0.45-0.07-0.68c-0.01-0.54,0.08-0.92,0.26-1.15c0.24-0.31,0.65-0.46,1.21-0.46c0.18,0,0.35,0.02,0.52,0.06
		c0.21,0.05,0.39,0.13,0.53,0.25c0.13,0.1,0.21,0.21,0.26,0.33c0.06,0.14,0.09,0.3,0.11,0.48c0.02,0.31,0.04,0.64,0.04,1.01
		c0,0.47-0.02,0.93-0.05,1.37c-0.02,0.23-0.05,0.43-0.11,0.61c-0.04,0.15-0.11,0.27-0.21,0.37c-0.25,0.27-0.65,0.41-1.19,0.41
		c-0.25,0-0.47-0.03-0.67-0.09c-0.22-0.06-0.38-0.18-0.49-0.34c-0.1-0.14-0.16-0.3-0.17-0.49c-0.01-0.09-0.02-0.19-0.02-0.29v-0.15
		h0.71v0.15c-0.01,0.46,0.22,0.69,0.69,0.69c0.32,0,0.54-0.11,0.65-0.34c0.06-0.12,0.1-0.35,0.12-0.68l0.02-0.58L20.88,66.41z
		 M21.16,65.02c0-0.32-0.04-0.54-0.11-0.68c-0.1-0.21-0.32-0.31-0.66-0.31c-0.32,0-0.53,0.12-0.63,0.34
		c-0.07,0.15-0.11,0.38-0.11,0.68c0,0.16,0.01,0.31,0.04,0.45c0.05,0.38,0.29,0.56,0.7,0.56C20.91,66.06,21.16,65.71,21.16,65.02z"
		/>
	<path class="st4" d="M23.93,67.59v0.73h-0.84v-0.73H23.93z"/>
	<path class="st4" d="M28.02,66.83c0,0.23-0.02,0.43-0.05,0.61c-0.06,0.32-0.22,0.56-0.49,0.71c-0.28,0.16-0.59,0.24-0.93,0.24
		c-0.21,0-0.41-0.03-0.6-0.09c-0.48-0.15-0.75-0.43-0.81-0.85c-0.03-0.17-0.05-0.38-0.04-0.61v-1.81c0-0.24,0.01-0.45,0.04-0.63
		c0.04-0.3,0.2-0.53,0.49-0.69c0.25-0.14,0.56-0.21,0.93-0.21c0.56,0,0.96,0.14,1.21,0.41c0.17,0.19,0.25,0.56,0.25,1.11V66.83z
		 M27.31,65.01c0-0.13-0.01-0.26-0.02-0.39c-0.03-0.41-0.27-0.61-0.74-0.61c-0.34,0-0.56,0.11-0.65,0.32
		c-0.06,0.12-0.08,0.35-0.08,0.68v1.82l0.02,0.34c0.04,0.46,0.28,0.69,0.72,0.69c0.42,0,0.66-0.23,0.72-0.69
		c0.02-0.12,0.02-0.23,0.02-0.34V65.01z"/>
	<path class="st4" d="M32.07,66.83c0,0.23-0.02,0.43-0.05,0.61c-0.06,0.32-0.22,0.56-0.49,0.71c-0.28,0.16-0.59,0.24-0.93,0.24
		c-0.21,0-0.41-0.03-0.6-0.09c-0.48-0.15-0.75-0.43-0.81-0.85c-0.03-0.17-0.05-0.38-0.04-0.61v-1.81c0-0.24,0.01-0.45,0.04-0.63
		c0.04-0.3,0.2-0.53,0.49-0.69c0.25-0.14,0.56-0.21,0.93-0.21c0.56,0,0.96,0.14,1.21,0.41c0.17,0.19,0.25,0.56,0.25,1.11V66.83z
		 M31.36,65.01c0-0.13-0.01-0.26-0.02-0.39c-0.03-0.41-0.27-0.61-0.74-0.61c-0.34,0-0.56,0.11-0.65,0.32
		c-0.06,0.12-0.08,0.35-0.08,0.68v1.82l0.02,0.34c0.04,0.46,0.28,0.69,0.72,0.69c0.42,0,0.66-0.23,0.72-0.69
		c0.02-0.12,0.02-0.23,0.02-0.34V65.01z"/>
	<path class="st4" d="M36.13,66.83c0,0.23-0.02,0.43-0.05,0.61c-0.06,0.32-0.22,0.56-0.49,0.71c-0.28,0.16-0.59,0.24-0.93,0.24
		c-0.21,0-0.41-0.03-0.6-0.09c-0.48-0.15-0.75-0.43-0.81-0.85c-0.03-0.17-0.05-0.38-0.04-0.61v-1.81c0-0.24,0.01-0.45,0.04-0.63
		c0.04-0.3,0.2-0.53,0.49-0.69c0.25-0.14,0.56-0.21,0.93-0.21c0.56,0,0.96,0.14,1.21,0.41c0.17,0.19,0.25,0.56,0.25,1.11V66.83z
		 M35.41,65.01c0-0.13-0.01-0.26-0.02-0.39c-0.03-0.41-0.27-0.61-0.74-0.61c-0.34,0-0.56,0.11-0.65,0.32
		c-0.06,0.12-0.08,0.35-0.08,0.68v1.82l0.02,0.34c0.04,0.46,0.28,0.69,0.72,0.69c0.42,0,0.66-0.23,0.72-0.69
		c0.02-0.12,0.02-0.23,0.02-0.34V65.01z"/>
	<path class="st4" d="M39.2,66.41c-0.22,0.11-0.47,0.17-0.75,0.17c-0.18,0-0.35-0.02-0.5-0.07c-0.35-0.11-0.56-0.35-0.63-0.72
		c-0.05-0.22-0.07-0.45-0.07-0.68c-0.01-0.54,0.08-0.92,0.26-1.15c0.24-0.31,0.65-0.46,1.21-0.46c0.18,0,0.35,0.02,0.52,0.06
		c0.21,0.05,0.39,0.13,0.53,0.25c0.13,0.1,0.21,0.21,0.26,0.33c0.06,0.14,0.09,0.3,0.11,0.48c0.02,0.31,0.04,0.64,0.04,1.01
		c0,0.47-0.02,0.93-0.05,1.37c-0.02,0.23-0.05,0.43-0.11,0.61c-0.04,0.15-0.11,0.27-0.21,0.37c-0.25,0.27-0.65,0.41-1.19,0.41
		c-0.25,0-0.47-0.03-0.67-0.09c-0.22-0.06-0.38-0.18-0.49-0.34c-0.1-0.14-0.16-0.3-0.17-0.49c-0.01-0.09-0.02-0.19-0.02-0.29v-0.15
		H38v0.15c-0.01,0.46,0.22,0.69,0.69,0.69c0.32,0,0.54-0.11,0.65-0.34c0.06-0.12,0.1-0.35,0.12-0.68l0.02-0.58L39.2,66.41z
		 M39.48,65.02c0-0.32-0.04-0.54-0.11-0.68c-0.1-0.21-0.32-0.31-0.66-0.31c-0.32,0-0.53,0.12-0.63,0.34
		c-0.07,0.15-0.11,0.38-0.11,0.68c0,0.16,0.01,0.31,0.04,0.45c0.05,0.38,0.29,0.56,0.7,0.56C39.23,66.06,39.49,65.71,39.48,65.02z"
		/>
	<path class="st4" d="M42.28,65.47c0.21-0.11,0.46-0.17,0.74-0.17c0.66,0.01,1.04,0.27,1.14,0.78c0.04,0.22,0.07,0.44,0.07,0.67
		c0,0.54-0.08,0.93-0.26,1.15c-0.24,0.31-0.64,0.47-1.2,0.47c-0.89-0.01-1.37-0.38-1.43-1.12c-0.03-0.3-0.04-0.63-0.04-0.98
		c0-0.49,0.01-0.95,0.05-1.39c0.01-0.22,0.05-0.43,0.11-0.61c0.14-0.51,0.61-0.77,1.39-0.77c0.37,0,0.67,0.07,0.91,0.21
		c0.28,0.16,0.42,0.4,0.43,0.71l0,0.31v0.14h-0.71v-0.08l-0.01-0.19c-0.04-0.38-0.26-0.57-0.65-0.57c-0.45,0.01-0.71,0.21-0.75,0.61
		c-0.02,0.14-0.03,0.27-0.04,0.42l-0.02,0.58L42.28,65.47z M42.01,66.85c0,0.32,0.04,0.54,0.11,0.68c0.11,0.22,0.33,0.32,0.66,0.32
		c0.4,0,0.64-0.18,0.7-0.54c0.03-0.15,0.04-0.32,0.04-0.5c0-0.15-0.01-0.29-0.03-0.42c-0.06-0.37-0.29-0.56-0.69-0.56
		c-0.43,0-0.68,0.19-0.75,0.58C42.02,66.54,42,66.69,42.01,66.85z"/>
</g>
<g>
	<rect x="37.96" y="23.52" class="st2" width="1.31" height="1.31"/>
	<rect x="37.96" y="20.41" class="st2" width="1.31" height="1.31"/>
	<path class="st2" d="M43.64,21.71c0.38-0.6,0.57-1.21,0.57-1.81c0-0.55-0.14-0.96-0.42-1.21c-0.28-0.25-0.72-0.37-1.33-0.37
		c-0.64,0-1.11,0.14-1.4,0.43c-0.29,0.29-0.41,0.72-0.35,1.28v0.26h1.34l0-0.27c-0.03-0.24,0-0.43,0.07-0.54
		c0.06-0.11,0.17-0.16,0.32-0.16c0.14,0,0.24,0.04,0.3,0.12c0.07,0.08,0.1,0.23,0.1,0.42c0,0.41-0.17,0.92-0.51,1.5
		c-0.34,0.59-0.9,1.35-1.69,2.31v1.14h3.6v-1.02h-2.29C42.76,22.9,43.32,22.21,43.64,21.71z"/>
	<path class="st2" d="M56.47,20.89c-0.21-0.27-0.56-0.41-1.05-0.41c-0.4,0-0.74,0.1-1.01,0.3l0-1.38h2.18v-1.03h-3.5l-0.06,3.95
		h1.44l0-0.07c0.01-0.28,0.05-0.49,0.13-0.61c0.07-0.11,0.18-0.16,0.34-0.16c0.17,0,0.28,0.05,0.33,0.15
		c0.04,0.08,0.09,0.28,0.09,0.76v0.42c0,0.45-0.04,0.75-0.11,0.88c-0.06,0.12-0.19,0.18-0.39,0.18c-0.16,0-0.27-0.04-0.35-0.13
		c-0.08-0.09-0.11-0.23-0.11-0.42v-0.26h-1.42v0.26c-0.01,0.55,0.14,0.94,0.43,1.18c0.29,0.23,0.78,0.35,1.46,0.35
		c0.66,0,1.15-0.16,1.45-0.48c0.3-0.31,0.45-0.82,0.45-1.52v-0.63C56.77,21.6,56.67,21.16,56.47,20.89z"/>
	<path class="st2" d="M7.5,24.77v-6.45h1.51v6.45H7.5z"/>
	<path class="st2" d="M10.99,22.61v0.45c0,0.21,0.04,0.38,0.13,0.5c0.09,0.13,0.25,0.19,0.47,0.19c0.17,0,0.29-0.06,0.38-0.19
		c0.09-0.12,0.13-0.28,0.13-0.46c0-0.23-0.06-0.41-0.19-0.53c-0.13-0.12-0.33-0.26-0.62-0.43c-0.29-0.17-0.52-0.32-0.71-0.45
		c-0.18-0.13-0.34-0.27-0.47-0.43c-0.13-0.16-0.24-0.35-0.32-0.56c-0.08-0.21-0.12-0.45-0.12-0.72c0-0.6,0.17-1.05,0.5-1.36
		c0.34-0.31,0.8-0.47,1.4-0.47c0.64,0,1.12,0.19,1.44,0.57c0.32,0.38,0.48,0.89,0.48,1.52H12.1c0-0.28-0.03-0.51-0.09-0.68
		c-0.06-0.17-0.2-0.25-0.41-0.25c-0.17,0-0.3,0.04-0.39,0.11c-0.09,0.07-0.14,0.18-0.14,0.34v0.09c0,0.15,0.04,0.27,0.11,0.37
		c0.07,0.1,0.19,0.21,0.34,0.31c0.37,0.22,0.65,0.39,0.87,0.52c0.21,0.13,0.4,0.27,0.57,0.43c0.17,0.16,0.3,0.35,0.39,0.58
		c0.09,0.23,0.14,0.54,0.14,0.92c0,0.62-0.17,1.09-0.5,1.43c-0.33,0.33-0.81,0.5-1.44,0.5c-0.65,0-1.14-0.15-1.47-0.46
		c-0.33-0.31-0.49-0.69-0.49-1.16v-0.69H10.99z"/>
	<path class="st2" d="M18.2,22.71c0,0.76-0.15,1.31-0.46,1.67c-0.31,0.36-0.83,0.54-1.58,0.54c-0.75,0-1.28-0.18-1.59-0.54
		c-0.32-0.36-0.47-0.92-0.47-1.67v-2.62c0-0.62,0.18-1.09,0.53-1.43c0.36-0.33,0.87-0.5,1.53-0.5c0.66,0,1.16,0.17,1.51,0.5
		c0.35,0.33,0.52,0.81,0.52,1.43V22.71z M16.69,20.19c0-0.26-0.03-0.47-0.1-0.63c-0.07-0.16-0.21-0.24-0.43-0.24
		c-0.21,0-0.36,0.08-0.43,0.24c-0.07,0.16-0.11,0.37-0.11,0.62v2.64c0,0.26,0.04,0.48,0.11,0.65c0.07,0.18,0.22,0.27,0.44,0.27
		c0.22,0,0.36-0.09,0.43-0.26c0.07-0.17,0.1-0.39,0.1-0.66V20.19z"/>
	<path class="st2" d="M22.38,23.25c0,0.19,0.03,0.34,0.1,0.44c0.07,0.1,0.19,0.16,0.38,0.16c0.19,0,0.32-0.08,0.38-0.24
		c0.06-0.16,0.1-0.36,0.1-0.6v-0.26v-0.43c-0.17,0.13-0.32,0.21-0.45,0.25c-0.13,0.04-0.31,0.06-0.53,0.06
		c-0.54,0-0.91-0.18-1.12-0.54c-0.21-0.36-0.31-0.82-0.31-1.4c0-0.79,0.14-1.38,0.43-1.78c0.28-0.39,0.8-0.59,1.55-0.59
		c0.68,0,1.16,0.2,1.44,0.61c0.28,0.4,0.43,0.96,0.43,1.68v1.71c0,0.82-0.12,1.46-0.35,1.92c-0.23,0.46-0.71,0.69-1.44,0.69
		c-0.65,0-1.14-0.12-1.47-0.37c-0.33-0.25-0.49-0.68-0.49-1.3H22.38z M22.36,20.54c0,0.33,0.02,0.59,0.07,0.76
		c0.05,0.17,0.19,0.26,0.43,0.26c0.19,0,0.32-0.07,0.38-0.22c0.06-0.15,0.09-0.34,0.09-0.58v-0.17c0-0.06,0-0.12,0-0.18
		c0-0.06,0-0.12,0-0.19c0-0.25-0.03-0.45-0.09-0.6c-0.06-0.15-0.2-0.22-0.4-0.22c-0.2,0-0.34,0.09-0.4,0.28
		c-0.06,0.19-0.09,0.43-0.09,0.71V20.54z"/>
	<path class="st2" d="M25.23,20.14c0-0.62,0.16-1.08,0.49-1.38c0.32-0.29,0.8-0.44,1.43-0.44c0.74,0,1.24,0.17,1.51,0.52
		c0.26,0.34,0.4,0.9,0.4,1.68v2.32c0,0.73-0.14,1.27-0.42,1.59c-0.28,0.33-0.78,0.49-1.5,0.49c-0.62,0-1.09-0.14-1.42-0.43
		c-0.32-0.29-0.49-0.74-0.49-1.35V20.14z M27.62,20.14c0-0.19-0.02-0.36-0.07-0.51c-0.05-0.16-0.18-0.23-0.4-0.23
		c-0.21,0-0.34,0.06-0.4,0.19c-0.06,0.13-0.09,0.31-0.09,0.55v2.89c0,0.26,0.03,0.46,0.08,0.6c0.05,0.14,0.19,0.21,0.4,0.21
		c0.21,0,0.34-0.08,0.39-0.24c0.05-0.16,0.08-0.35,0.08-0.57V20.14z"/>
	<path class="st2" d="M29.54,20.14c0-0.62,0.16-1.08,0.49-1.38c0.32-0.29,0.8-0.44,1.43-0.44c0.74,0,1.24,0.17,1.51,0.52
		c0.26,0.34,0.4,0.9,0.4,1.68v2.32c0,0.73-0.14,1.27-0.42,1.59c-0.28,0.33-0.78,0.49-1.5,0.49c-0.62,0-1.09-0.14-1.42-0.43
		c-0.32-0.29-0.49-0.74-0.49-1.35V20.14z M31.92,20.14c0-0.19-0.02-0.36-0.07-0.51c-0.05-0.16-0.18-0.23-0.4-0.23
		c-0.21,0-0.34,0.06-0.4,0.19c-0.06,0.13-0.09,0.31-0.09,0.55v2.89c0,0.26,0.03,0.46,0.08,0.6c0.05,0.14,0.19,0.21,0.4,0.21
		c0.21,0,0.34-0.08,0.39-0.24c0.05-0.16,0.08-0.35,0.08-0.57V20.14z"/>
	<path class="st2" d="M35.23,20.42h-1.32v-0.99c0.41,0,0.78-0.07,1.11-0.22c0.33-0.15,0.53-0.4,0.6-0.74h0.97v6.31h-1.37V20.42z"/>
	<path class="st2" d="M44.95,20.14c0-0.62,0.16-1.08,0.49-1.38c0.32-0.29,0.8-0.44,1.43-0.44c0.74,0,1.24,0.17,1.51,0.52
		c0.26,0.34,0.4,0.9,0.4,1.68v2.32c0,0.73-0.14,1.27-0.42,1.59c-0.28,0.33-0.78,0.49-1.5,0.49c-0.62,0-1.09-0.14-1.42-0.43
		c-0.32-0.29-0.49-0.74-0.49-1.35V20.14z M47.33,20.14c0-0.19-0.02-0.36-0.07-0.51c-0.05-0.16-0.18-0.23-0.4-0.23
		c-0.21,0-0.34,0.06-0.4,0.19c-0.06,0.13-0.09,0.31-0.09,0.55v2.89c0,0.26,0.03,0.46,0.08,0.6c0.05,0.14,0.19,0.21,0.4,0.21
		c0.21,0,0.34-0.08,0.39-0.24c0.05-0.16,0.08-0.35,0.08-0.57V20.14z"/>
	<path class="st2" d="M50.77,20.42h-1.32v-0.99c0.41,0,0.78-0.07,1.11-0.22c0.33-0.15,0.53-0.4,0.6-0.74h0.97v6.31h-1.37V20.42z"/>
</g>
</svg>
